<?xml version="1.0" encoding="UTF-8" standalone="no"?><!DOCTYPE svg PUBLIC "-//W3C//DTD SVG 1.1//EN" "http://www.w3.org/Graphics/SVG/1.1/DTD/svg11.dtd"><svg width="100%" height="100%" viewBox="0 0 11795 7983" version="1.1" xmlns="http://www.w3.org/2000/svg" xmlns:xlink="http://www.w3.org/1999/xlink" xml:space="preserve" xmlns:serif="http://www.serif.com/" style="fill-rule:evenodd;clip-rule:evenodd;stroke-linejoin:round;stroke-miterlimit:2;"><g><g><g><path d="M7151.36,2881.51c1.988,-2.952 2.887,-5.691 4.362,-8.6c4.491,1.155 8.981,2.267 13.6,3.337c-5.902,1.198 -11.932,3.338 -17.962,5.263Zm601.621,-276.004c14.563,-12.793 25.469,-27.255 33.488,-42.914c2.309,-1.54 4.876,-2.823 7.121,-4.535c13.279,-9.755 13.793,-24.087 9.495,-39.148c0.706,-2.738 1.347,-5.562 1.924,-8.343c3.721,2.139 7.249,4.236 10.713,6.375c-5.965,35.811 -14.947,70.51 -25.981,102.513c-11.676,-4.75 -24.506,-9.285 -36.76,-13.948Zm-1149.93,-794.299c17,5.477 34.514,10.91 52.284,16.344c69.606,21.435 143.189,43.469 206.315,72.948c-0.065,-0.043 -0.065,-0.086 -0.128,-0.129c36.309,16.857 69.348,36.025 95.587,59.257c14.562,12.793 64.281,27.639 81.088,7.787c18.028,-21.221 25.341,-43.512 26.175,-66.53c3.271,12.493 6.094,25.243 8.467,37.779c7.186,37.436 -5.517,93.955 10.586,129.937c24.635,55.321 107.969,79.793 179.627,110.171c-10.906,46.036 -20.786,92.286 -20.786,137.467c-28.804,-48.433 -61.65,-95.838 -102.195,-140.548c-15.204,-16.686 -32.396,-32.773 -50.488,-48.475c-0.897,-0.727 -1.796,-1.412 -2.694,-2.182c-17.257,-14.889 -35.861,-29.265 -55.299,-43.255c-0.449,-0.343 -0.771,-0.642 -1.219,-0.942c0,0.043 0,0.043 -0.064,0.086c-103.03,-74.018 -232.104,-136.312 -353.994,-188.21c-121.633,-51.598 -250.772,-84.243 -382.477,-99.945c-2.052,-12.28 -7.185,-24.601 -14.306,-36.924c112.588,6.504 224.79,23.361 323.521,55.364Zm651.789,526.68c8.532,4.364 19.759,6.802 30.152,7.616c-6.544,3.294 -12.767,8.086 -18.347,13.819c-3.786,-7.188 -7.828,-14.204 -11.805,-21.435Zm-1516.95,-16.215c9.43,-23.361 19.374,-46.379 29.125,-69.355c-0.257,-0.042 -0.45,-0.042 -0.642,-0.085c2.952,-7.017 6.03,-14.034 9.045,-21.05c0.193,0 0.386,0.043 0.514,0.043c24.186,-56.433 49.333,-112.61 77.176,-168.316c5.773,-11.466 11.482,-23.317 17.32,-35.168c74.096,37.864 144.28,46.806 219.979,40.431c-0.513,0.642 -1.154,1.112 -1.668,1.754c-7.505,9.413 6.416,22.077 17.963,26.441c34.899,12.878 68.323,21.649 106.237,29.992c54.658,12.108 76.149,46.678 127.406,59.172c80.833,19.895 168.08,-10.611 256.034,-16.044c-37.915,9.583 -77.818,17.969 -107.135,40.217c-11.035,8.385 -6.031,22.119 5.965,28.879c34.13,19.168 72.814,30.891 106.558,50.144c44.329,25.372 87.954,60.327 137.35,81.077c20.016,8.386 40.545,8.6 61.266,4.921c-0.641,4.834 0.962,10.011 5.068,14.589c23.288,26.484 69.156,46.379 116.245,64.477c27.2,11.124 54.337,21.435 77.624,30.334c5.26,2.225 10.777,4.45 15.653,6.76c-176.932,11.937 -346.423,57.546 -510.718,114.535c-189.057,65.375 -418.531,165.62 -545.424,295.129c0.064,-0.043 0.128,-0.086 0.128,-0.128c-0.128,0.085 -0.128,0.213 -0.256,0.299c-13.922,14.248 -26.303,28.923 -37.594,43.897c-1.86,2.482 -3.592,4.963 -5.388,7.488c-10.778,15.102 -20.658,30.377 -28.292,46.122c-6.415,6.332 -11.997,13.306 -16.68,19.509c-10.521,13.948 -20.401,31.49 -18.411,47.278c1.283,11.466 23.544,21.734 40.416,16.728c12.83,-4.064 24.314,-8.856 35.348,-14.076c11.034,1.711 22.71,0.471 29.638,-5.177c36.695,-30.591 84.104,-21.435 132.539,-23.788c47.473,-2.225 103.735,-35.64 142.996,-47.449c47.344,-14.461 97.448,-22.932 137.608,-45.394c16.679,-9.498 19.887,-27.596 23.095,-44.582c37.4,16.344 70.31,10.269 130.101,-8.942c53.503,-17.242 157.365,-24.387 202.593,-54.764c31.178,-21.136 21.17,-38.592 22.838,-59.813c20.016,10.867 37.53,24.13 66.59,30.035c3.273,0.684 6.416,0.385 9.687,0.641c-24.442,29.822 -25.597,63.621 -3.143,92.073c-163.268,147.137 -351.364,289.268 -482.747,449.967c-15.91,19.382 -30.601,39.277 -45.87,58.915c-0.192,-0.086 -0.385,-0.171 -0.576,-0.3c-7.956,10.311 -15.59,20.794 -23.416,31.147c-57.161,75.344 -110.664,152.272 -161.472,229.883c-0.128,-0.043 -0.193,-0.086 -0.257,-0.128c-2.886,4.62 -6.094,9.07 -8.789,13.605l0.065,0.043c-25.341,38.977 -50.104,77.997 -74.289,117.144c-0.192,-0.085 -0.45,-0.171 -0.642,-0.256c-45.612,-15.916 -88.146,-32.474 -129.716,-53.053c-39.582,-19.082 -81.73,-30.377 -129.46,-37.865c-19.887,-3.123 -40.224,-5.091 -60.624,-6.375c-7.249,-0.47 -14.37,-0.47 -21.683,-0.727c-13.152,-0.428 -26.239,-0.599 -39.454,-0.214c-8.789,0.214 -17.514,0.685 -26.303,1.241c-10.264,0.684 -20.528,1.626 -30.728,2.781c0.32,-0.172 0.513,-0.385 0.833,-0.556c-4.169,0.471 -8.276,1.24 -12.445,1.754c-6.352,0.813 -12.575,1.669 -18.798,2.653c-2.372,0.427 -4.939,0.598 -7.376,1.026c-0.322,0.043 -0.899,0.599 -1.347,0.728c-12.382,2.139 -24.763,4.45 -36.824,7.359c0.384,-0.171 0.769,-0.599 1.155,-0.685c-3.978,0.941 -7.891,1.84 -11.869,2.781c-20.528,3.508 -40.352,7.915 -59.533,14.932c-6.929,2.567 -13.473,5.562 -20.144,8.385c-3.529,-53.908 -4.94,-107.945 -2.951,-161.897c0.193,0 0.384,0.043 0.513,0.043c0.385,-12.194 1.539,-24.302 1.924,-36.495c-0.128,0 -0.256,0 -0.385,-0.043c1.476,-26.441 2.759,-52.925 5.069,-79.238c11.868,-136.311 38.042,-271.597 71.851,-406.112l0.063,0c5.133,-21.008 11.164,-42.015 17.065,-63.193c-0.321,0 -0.577,0 -0.898,0.042c30.216,-111.796 65.5,-223.079 102.709,-333.891l0.128,0c0.962,-2.952 2.053,-5.862 2.95,-8.814c-0.063,0 -0.063,-0.043 -0.128,-0.043c16.744,-49.844 33.744,-99.603 50.937,-149.318c21.299,-61.525 44.329,-122.921 68.708,-184.06Zm-1507.52,-1290.43c-55.62,8.771 -109.508,19.895 -160.638,33.929c-5.324,1.497 -10.456,3.123 -15.781,4.62c-18.476,5.391 -36.631,11.167 -54.273,17.285c-6.864,2.439 -13.921,4.792 -20.658,7.359c-22.132,8.3 -43.751,17.029 -64.152,26.74c-238.967,113.209 -425.973,279.171 -408.908,482.741c1.925,23.018 61.586,39.704 71.723,20.066c3.4,-0.171 6.864,-0.299 10.393,-1.027c110.406,-21.82 216.065,-59.642 326.215,-80.435c145.626,-27.382 298.63,-30.72 448.554,-23.104c106.943,5.434 112.331,-25.927 100.335,-67.514c37.401,36.195 73.968,74.06 136.772,78.98c57.033,4.45 101.233,-7.915 156.148,-15.53c61.715,-8.558 117.143,3.336 174.11,-7.573c21.234,-4.15 26.174,-15.446 23.993,-28.709c-5.71,-33.501 -21.812,-64.904 -33.488,-97.164c55.685,43.683 78.972,115.904 163.14,130.194c62.036,10.611 126.573,-5.391 190.213,8.6c36.502,7.957 74.096,15.701 113.036,13.691c18.027,-0.771 32.845,-7.06 33.744,-20.195c2.181,-26.055 20.721,-63.407 5.582,-89.463c19.759,33.972 43.11,78.681 33.23,115.006c-4.555,17.542 12.382,34.228 38.684,38.634c29.318,4.621 63.96,8.9 100.784,13.734c0.192,3.894 -0.834,7.402 0,11.509c2.117,10.739 6.222,20.965 11.612,30.72c1.41,2.439 3.271,4.578 4.811,6.888c4.618,7.231 9.751,14.119 15.974,20.622c2.438,2.482 5.132,4.749 7.762,7.145c6.351,5.819 13.215,11.253 20.85,16.344c3.272,2.139 6.543,4.193 10.008,6.204c7.954,4.621 16.423,8.728 25.34,12.493c2.438,1.027 4.362,2.439 6.864,3.38c-0.513,-0.342 -0.77,-0.727 -1.219,-1.07c36.823,14.333 80.191,20.836 125.995,16.601c-9.045,8.771 -18.026,17.67 -26.815,26.869c-25.405,26.783 -51.322,53.224 -77.433,79.536c-62.612,15.317 -124.455,34.014 -184.758,56.519c-11.548,4.45 -9.559,11.039 -2.438,16.302c0.385,2.738 2.566,5.861 8.404,8.984c21.427,12.023 43.367,23.532 66.206,33.928c-28.228,30.078 -55.942,60.412 -81.924,91.688c-132.795,160.186 -250.259,340.78 -346.872,517.482c-1.54,2.695 -3.015,5.348 -4.49,8.043c0,0 0.063,0 0.128,0.043c-20.593,37.65 -40.416,75.258 -58.892,112.353c-115.924,232.449 -231.976,469.947 -307.611,710.525c-0.386,1.113 -0.834,2.311 -1.22,3.466c0.065,0 0.065,0.043 0.065,0.043c-7.185,23.103 -14.498,46.207 -20.978,69.354c-23.095,82.703 -49.206,166.604 -64.217,250.761c0,0 -0.063,-0.042 -0.128,-0.042c-4.619,26.526 -8.276,52.881 -10.328,79.494c-1.155,14.717 -4.812,33.243 -9.238,53.523c-0.514,2.61 -1.027,5.092 -1.604,7.83c-2.118,9.626 -4.234,19.51 -6.351,29.607c-1.925,9.583 -3.786,19.253 -5.454,28.922c-0.576,3.766 -0.962,7.402 -1.603,11.124c-1.026,6.846 -1.86,13.606 -2.502,20.28c-0.385,4.15 -0.578,8.129 -0.834,12.151c-0.32,6.247 -0.45,12.279 -0.257,18.269c0.065,3.851 0.257,7.616 0.578,11.295c0.577,6.076 1.668,11.766 3.015,17.371c0.705,2.909 1.155,5.99 2.052,8.685c2.695,8.001 6.095,15.403 10.971,21.692c10.008,12.622 29.189,24.516 50.873,31.661c-30.28,-0.385 -60.56,-0.685 -90.968,-0.728c-4.363,-7.401 -8.854,-14.803 -12.511,-22.504l-11.675,-3.166l0,-0.043c-16.937,-4.535 -44.715,-16.986 -62.613,-16.9c-21.555,0.128 -53.503,13.434 -73.262,18.568c-22.646,5.734 -53.054,9.627 -73.263,18.612c-7.505,3.294 -14.498,8.001 -21.297,13.049c-34.836,2.61 -69.543,5.733 -103.928,10.226c-46.254,6.032 -43.623,50.314 -1.988,59.299c94.752,20.152 194.189,27.04 293.497,29.008c-8.853,6.461 -14.884,14.547 -15.268,24.601c-0.963,32.26 51.578,41.544 89.108,45.951c167.245,19.425 338.725,17.499 508.279,6.803c6.609,4.877 14.5,8.942 23.609,11.595c43.495,13.391 93.791,14.975 141.199,16.258c110.342,2.824 220.621,3.295 331.092,6.803c144.022,4.278 292.663,4.963 428.987,-28.752c9.431,-0.042 18.604,0.343 27.906,0.257c71.146,0.77 190.149,-0.428 269.505,-28.58c84.361,-2.011 168.785,-5.006 252.889,-7.316c79.806,-1.968 159.483,-1.54 239.289,-3.894c77.817,-2.353 174.046,-5.562 239.032,-33.072c14.05,-5.947 20.721,-13.349 22.197,-20.879c57.544,-0.257 114.897,-4.749 162.498,-25.757c28.099,-12.493 34.386,-41.543 1.796,-54.122c-76.598,-29.522 -168.528,-36.752 -261.228,-35.426c-15.141,-19.039 -30.729,-37.95 -44.65,-57.417c-15.012,-21.093 -30.152,-42.1 -43.688,-63.792c0.898,-1.626 0.128,-3.808 -3.144,-4.321c-0.705,-0.129 -1.347,-0.3 -2.053,-0.429c-0.385,-0.898 -1.282,-1.668 -3.079,-2.01c-38.62,-7.274 -76.983,-15.232 -114.961,-23.66c-3.144,-0.556 -6.159,-1.283 -9.303,-1.84c1.733,0.813 3.593,1.498 5.325,2.311c-15.588,-3.381 -31.306,-6.717 -46.831,-10.269c-18.54,-4.279 -36.952,-8.856 -54.658,-14.461c-26.752,-8.642 -48.82,-22.633 -76.02,-30.591c-26.624,-8.044 -61.01,-5.348 -88.659,-1.07c-11.933,1.797 -23.224,4.835 -34.514,7.873c31.883,-75.601 62.613,-151.501 100.078,-225.262c48.755,-95.752 103.349,-189.879 161.407,-283.064c0.193,0.043 0.385,0.086 0.514,0.128c10.456,-16.728 21.49,-33.286 32.204,-50.143c-0.128,-0.043 -0.256,-0.043 -0.449,-0.086c39.389,-61.652 79.869,-122.963 121.312,-184.017l0.064,0c7.378,-10.781 14.435,-21.478 21.748,-32.259l-0.128,0c2.502,-3.637 4.875,-7.274 7.313,-10.868c25.661,-37.351 51.258,-74.788 78.01,-111.839c7.12,-2.439 13.664,-5.391 20.335,-8.386c3.786,-1.754 7.635,-3.38 11.292,-5.305c8.019,-4.15 15.268,-8.942 22.324,-13.991c2.952,-2.096 6.16,-3.893 8.918,-6.161c1.796,-1.497 3.528,-3.08 5.324,-4.706c-5.26,51.769 -73.646,115.476 -30.793,160.871c17.514,18.568 95.202,32.986 114.513,33.97c-36.888,-2.01 -58.507,-3.251 -94.369,4.579c-24.827,5.219 -33.936,24.601 -40.929,39.147c-17.064,35.555 -28.997,49.117 -54.338,79.195c-26.687,32.088 -9.75,44.924 32.27,62.594c9.366,3.936 85.13,35.383 60.623,30.334c-20.721,-4.363 -47.023,-14.761 -69.733,-9.498c-28.612,6.803 -30.408,10.269 -44.778,28.409c-38.62,49.203 -73.07,99.603 -117.977,147.865c-19.759,21.392 -84.296,65.375 -28.548,88.778c13.279,5.604 29.125,6.46 45.613,5.733c-9.046,4.065 -17.258,8.813 -24.635,14.504c-27.714,22.291 -54.593,49.844 -80.896,73.675c-18.091,16.216 10.072,32.688 33.359,35.169c58.378,6.76 116.822,-6.973 163.974,-30.249c5.581,-2.695 8.211,-5.604 9.366,-8.428c300.17,-123.178 517.647,-334.491 577.051,-566.555c20.978,-82.49 22.967,-165.62 5.517,-247.339c7.635,3.637 15.975,5.99 25.085,7.658l0,-0.085c9.43,1.754 19.566,2.524 30.215,2.652c0.065,0.086 0.128,0.171 0.128,0.257c0.642,0 1.412,-0.086 2.117,-0.086c10.522,0 21.556,-0.556 32.911,-1.411c1.027,-0.086 2.052,-0.086 3.143,-0.171c12.895,-1.113 26.046,-2.482 39.261,-3.808c-30.728,30.12 -69.798,57.845 -0.448,85.484c59.598,23.702 125.289,142.644 213.435,135.328c33.167,-2.696 136.259,-38.678 91.61,3.08c-25.598,23.917 -45.036,41.801 -45.612,72.221c-0.45,20.366 52.989,47.363 64.986,68.626c9.623,17.157 25.853,32.945 52.477,39.362c23.479,5.819 47.345,-0.984 68.579,-6.888c34.77,-9.84 -20.594,47.02 -26.303,56.861c-9.622,16.943 45.421,53.395 52.349,64.476c14.948,25.072 16.165,61.354 50.744,79.324c20.016,10.61 38.748,16.557 65.499,15.616c5.261,0.043 9.687,-0.257 13.409,-0.299c-5.773,9.241 -9.11,19.424 -12.124,28.409c-31.693,91.131 57.223,194.071 37.976,285.588c-4.17,20.536 40.738,31.66 65.886,22.761c2.758,-0.428 5.581,-0.899 7.827,-1.54c175.648,-60.198 187.902,-201.559 203.17,-318.361c2.567,-19.853 3.08,-39.277 2.63,-58.573c-0.128,-6.246 -0.834,-12.45 -1.283,-18.654c-0.898,-13.092 -2.437,-26.098 -4.618,-38.977c-1.22,-6.803 -2.438,-13.605 -3.978,-20.322c-2.824,-12.964 -6.543,-25.8 -10.713,-38.507c-1.798,-5.69 -3.272,-11.466 -5.326,-17.114c-6.351,-17.242 -13.663,-34.356 -22.003,-51.256c-3.209,-6.46 -6.929,-12.75 -10.394,-19.125c-5.965,-11.123 -12.124,-22.205 -18.861,-33.157c-4.683,-7.573 -9.623,-15.103 -14.562,-22.634c-6.543,-9.883 -13.472,-19.681 -20.592,-29.478c-5.261,-7.274 -10.521,-14.59 -16.103,-21.863c-1.347,-1.712 -2.502,-3.423 -3.849,-5.134c-0.321,-0.171 -0.45,-0.258 -0.577,-0.343c-25.79,-32.816 -53.761,-65.247 -84.234,-97.25c-80.639,-84.713 -181.999,-159.758 -293.753,-227.144c7.185,-12.878 14.114,-25.842 20.273,-38.977c3.207,-6.588 6.03,-13.134 8.981,-19.723c1.989,-4.578 4.234,-8.986 6.223,-13.606c-0.577,0.856 -1.411,1.626 -1.989,2.439c31.242,-75.558 47.602,-154.881 49.397,-235.787c9.239,7.787 17.835,15.617 28.035,23.147c9.944,7.572 27.329,8.343 40.031,4.193c72.685,-23.874 211.19,-34.699 264.821,-77.526c29.061,-23.446 -6.095,-71.451 -35.733,-107.861c51.644,24.259 102.517,55.835 107.583,93.442c2.054,13.734 27.137,24.559 47.089,19.296c58.635,-15.146 110.471,-28.794 174.238,-31.361c29.831,-1.241 41.443,-7.702 60.431,-21.007c19.824,-13.734 14.948,-35.169 1.668,-57.503c19.824,20.536 39.261,41.159 70.633,54.551c37.337,15.53 80.703,-7.958 117.398,-11.595c94.69,-9.199 121.891,-31.319 108.739,-71.237c22.71,19.724 41.25,40.26 77.945,49.373c82.822,20.238 182.066,-13.22 269.055,4.536c17.963,3.594 38.622,-3.038 28.422,-16.857c-77.947,-104.951 -322.881,-162.112 -486.277,-186.713c-235.439,-35.212 -482.043,-35.768 -720.817,-16.258c-27.329,2.268 -54.466,4.92 -81.538,8.001c-17.962,2.053 -35.798,4.492 -53.631,6.931c-8.853,1.155 -17.706,2.139 -26.432,3.422c-18.476,2.611 -36.759,5.734 -55.106,8.729c-74.994,-181.622 -213.116,-350.407 -395.758,-475.338c-91.609,-146.752 -257.444,-292.007 -477.808,-309.933c-23.928,-2.011 -24.826,12.792 -10.712,19.809c-11.035,6.119 -19.696,13.777 -27.137,22.077c0.064,-0.171 0.128,-0.342 0.193,-0.514c-0.257,0.257 -0.321,0.557 -0.578,0.813c-2.758,3.167 -4.619,6.717 -6.993,10.098c-3.593,5.262 -7.057,10.482 -9.751,16.172c-2.053,4.407 -3.849,8.729 -5.389,13.264c-0.064,0.256 -0.192,0.47 -0.321,0.727c-127.599,-26.826 -262.576,-38.378 -402.364,-29.992c-62.869,3.85 -130.165,10.653 -197.847,20.536c0,-0.128 -0.191,-0.256 -0.256,-0.385c-11.675,1.712 -23.351,3.766 -35.091,5.691c-6.287,0.984 -12.446,1.882 -18.732,2.995c-23.866,4.193 -47.538,8.856 -71.081,13.99c-6.994,1.498 -13.729,3.166 -20.658,4.793c-18.668,4.363 -37.08,9.027 -55.235,14.032c-6.48,1.755 -12.831,3.466 -19.246,5.306c-23.351,6.931 -46.318,14.247 -68.387,22.419c-3.143,1.155 -6.158,2.482 -9.301,3.68c-11.099,4.192 -22.133,8.428 -32.782,13.006c-0.642,-0.899 -0.962,-1.754 -1.668,-2.653c0.128,0.043 0.193,0.043 0.321,0.086c-0.578,-0.684 -0.962,-1.241 -1.54,-1.968c-7.313,-8.6 -15.461,-16.472 -24.506,-23.574c20.208,-14.59 39.902,-29.522 61.457,-43.128c235.12,-148.249 548.248,-236.171 890.245,-215.634c47.151,2.695 206.699,52.411 235.888,-3.723c9.559,-18.611 4.298,-39.02 -8.404,-59.813c23.737,23.532 43.496,49.202 60.497,75.644c9.301,14.418 36.887,29.692 56.646,36.196c58.571,19.766 140.366,9.754 204.133,21.777c46.895,9.113 89.108,21.606 136.195,29.693c159.869,27.595 71.532,-128.055 22.647,-219.786c88.273,60.797 120.479,141.019 145.626,228.257c10.522,36.367 18.924,42.057 64.474,61.481c72.555,31.191 187.71,39.876 269.118,64.092c44.716,13.349 62.036,17.842 103.03,5.904c9.237,-2.61 12.702,-10.268 13.472,-16.215c6.094,-48.86 2.437,-97.164 -8.019,-144.869c54.465,65.803 73.326,152.613 70.889,213.111c-0.578,18.055 10.456,43.554 36.759,52.496c65.756,21.906 270.273,78.853 333.271,37.309c30.858,-20.366 -1.091,-119.583 -7.763,-145.254c-3.784,-14.547 -8.659,-29.094 -14.111,-43.641c-2.567,-6.803 -5.711,-13.477 -8.534,-20.28c-3.015,-6.888 -6.095,-13.776 -9.558,-20.665c-4.491,-9.07 -9.302,-17.97 -14.5,-26.826c-2.308,-3.893 -4.81,-7.701 -7.247,-11.551c-14.37,-23.019 -30.473,-45.566 -50.168,-66.446c-115.924,-123.947 -275.793,-221.153 -472.804,-286.143c-439.124,-144.784 -967.356,-170.113 -1423.35,-40.218c-59.34,16.899 -113.677,37.008 -165.128,59.213l0,-0.042c-0.384,0.171 -0.77,0.342 -1.09,0.513c-30.408,13.135 -60.047,26.869 -88.466,41.501c34.77,-37.179 65.243,-77.055 101.36,-111.154c31.819,-30.206 180.012,-90.618 166.347,-131.477c-15.011,-45.524 -66.526,-85.399 -121.889,-113.423c-148,-74.189 92.893,5.134 144.215,13.391c87.888,13.991 98.088,-18.012 152.747,-58.786c68.9,-51.512 227.677,-106.961 248.078,-176.829c5.517,-18.868 -8.853,-37.265 -30.73,-54.208c50.81,15.403 100.014,31.275 149.86,22.718c91.931,-15.744 130.551,-100.372 235.505,-117.871c18.09,-3.124 27.135,-15.275 22.517,-27.04c-24.057,-60.627 -113.357,-81.933 -176.869,-117.231c101.426,6.461 193.933,48.133 269.826,88.522c17.449,9.327 36.695,9.712 57.672,11.252c34.002,2.225 66.528,-20.622 88.788,-33.757c59.79,-35.254 135.49,-62.337 212.217,-75.729c1.412,-0.171 2.759,-0.727 3.849,-0.984c20.913,-0.684 22.967,-22.505 -0.256,-31.703c-22.39,-8.643 -42.341,-17.457 -61.651,-26.27c-97.576,-44.539 -167.952,-89.206 -302.159,-110.256c-123.3,-19.254 -267.836,-9.199 -391.587,2.567c-226.458,21.478 -406.983,96.907 -569.16,193.772c0.256,-0.214 0.385,-0.428 0.641,-0.642c-1.411,0.899 -2.823,1.84 -4.234,2.696c-19.31,11.552 -38.107,23.702 -56.967,35.853c-8.981,5.733 -18.092,11.252 -27.009,17.157c-27.072,17.969 -53.759,36.367 -80.19,55.107c-181.167,128.44 -293.69,278.999 -384.852,439.655c-62.676,79.067 -116.564,159.716 -162.177,242.119c-0.834,-3.851 -1.925,-7.701 -2.759,-11.552c-1.668,-7.444 -3.335,-14.846 -5.195,-22.248c-0.963,-3.594 -1.668,-7.188 -2.566,-10.782c0,0.429 -0.129,0.899 -0.193,1.413c-98.025,-366.495 -479.732,-713.179 -1026.18,-803.284c-145.241,-23.831 -382.478,-43.384 -576.282,-13.477c0.064,-0.128 0,-0.299 0.064,-0.471c-6.865,1.113 -13.536,2.482 -20.336,3.68c-6.865,1.198 -13.729,2.396 -20.529,3.722c-13.472,2.738 -26.688,5.819 -39.582,9.07c-4.554,1.156 -9.238,2.14 -13.793,3.338c-16.808,4.621 -33.039,9.883 -48.563,15.616c-4.363,1.583 -8.276,3.508 -12.446,5.177c-11.163,4.493 -21.94,9.156 -32.076,14.29c-5.132,2.567 -9.88,5.306 -14.691,8.044c-8.789,4.92 -17.129,10.097 -25.019,15.573c-4.492,3.123 -8.918,6.29 -13.152,9.584c-7.762,6.075 -14.755,12.621 -21.555,19.381c-3.143,3.167 -6.607,6.161 -9.494,9.542c-9.111,10.353 -17.322,21.307 -23.865,33.158c-23.673,42.955 126.573,109.572 167.566,123.262c61.458,20.409 135.554,-3.936 205.288,-17.969c-26.688,16.729 -42.533,36.41 -18.861,67.129c38.877,50.914 160.894,94.255 228.19,126.429c89.237,42.485 225.624,33.287 312.552,-9.798c-43.816,21.692 -89.814,40.774 -96.165,79.024c-1.604,10.183 10.008,23.36 22.453,28.837c62.678,27.553 131.641,33.2 190.79,65.974c28.868,15.873 73.775,45.608 116.052,39.276c23.03,-1.198 44.585,-4.792 65.435,-11.038c47.217,-23.19 99.565,-32.474 156.725,-28.067c-19.311,13.905 -43.688,27.168 -59.854,42.657c-23.223,21.862 -31.692,35.853 -25.982,62.165c2.95,14.162 24.891,24.43 43.43,28.367c74.354,16.001 108.547,79.151 171.224,108.074c13.279,6.247 28.996,8.686 45.035,9.926c-18.027,8.129 -34.45,18.355 -45.548,37.394c-15.975,27.382 48.434,64.69 75.122,86.853l0,-0.043c4.619,3.594 8.147,6.974 9.943,9.712c62.871,92.287 109.766,191.334 125.868,291.792c-9.431,-11.295 -19.631,-22.334 -30.408,-33.243c-204.775,-211.443 -629.977,-348.055 -974.156,-378.26c-209.136,-18.441 -466.004,-23.66 -694.45,12.022c0.192,-0.043 0.384,-0.085 0.513,-0.128c-0.641,0.085 -1.219,0.256 -1.861,0.299Z" style="fill:#daa520;fill-opacity:0.42;fill-rule:nonzero;stroke:#000;stroke-width:3.46px;"/><path d="M7222.23,2881.51c1.988,-2.952 2.887,-5.691 4.362,-8.6c4.491,1.155 8.982,2.267 13.601,3.337c-5.903,1.198 -11.933,3.338 -17.963,5.263Zm601.622,-276.004c14.563,-12.793 25.468,-27.255 33.488,-42.914c2.309,-1.54 4.875,-2.823 7.12,-4.535c13.28,-9.755 13.794,-24.087 9.495,-39.148c0.706,-2.738 1.347,-5.562 1.925,-8.343c3.72,2.139 7.248,4.236 10.713,6.375c-5.966,35.811 -14.948,70.51 -25.982,102.513c-11.675,-4.75 -24.506,-9.285 -36.759,-13.948Zm-1149.93,-794.299c17.001,5.477 34.515,10.91 52.285,16.344c69.605,21.435 143.189,43.469 206.314,72.948c-0.064,-0.043 -0.064,-0.086 -0.128,-0.129c36.31,16.857 69.348,36.025 95.588,59.257c14.562,12.793 64.28,27.639 81.088,7.787c18.027,-21.221 25.34,-43.512 26.174,-66.53c3.272,12.493 6.095,25.243 8.468,37.779c7.186,37.436 -5.517,93.955 10.585,129.937c24.635,55.321 107.969,79.793 179.628,110.171c-10.906,46.036 -20.786,92.286 -20.786,137.467c-28.805,-48.433 -61.651,-95.838 -102.195,-140.548c-15.204,-16.686 -32.397,-32.773 -50.488,-48.475c-0.898,-0.727 -1.797,-1.412 -2.694,-2.182c-17.257,-14.889 -35.862,-29.265 -55.3,-43.255c-0.449,-0.343 -0.77,-0.642 -1.218,-0.942c0,0.043 0,0.043 -0.065,0.086c-103.029,-74.018 -232.103,-136.312 -353.994,-188.21c-121.633,-51.598 -250.772,-84.243 -382.476,-99.945c-2.053,-12.28 -7.185,-24.601 -14.307,-36.924c112.588,6.504 224.79,23.361 323.521,55.364Zm651.79,526.68c8.532,4.364 19.759,6.802 30.151,7.616c-6.543,3.294 -12.766,8.086 -18.347,13.819c-3.785,-7.188 -7.827,-14.204 -11.804,-21.435Zm-1516.95,-16.215c9.431,-23.361 19.374,-46.379 29.125,-69.355c-0.256,-0.042 -0.449,-0.042 -0.641,-0.085c2.951,-7.017 6.03,-14.034 9.045,-21.05c0.193,0 0.386,0.043 0.514,0.043c24.185,-56.433 49.333,-112.61 77.175,-168.316c5.774,-11.466 11.483,-23.317 17.321,-35.168c74.096,37.864 144.279,46.806 219.979,40.431c-0.513,0.642 -1.154,1.112 -1.668,1.754c-7.505,9.413 6.415,22.077 17.962,26.441c34.9,12.878 68.323,21.649 106.237,29.992c54.659,12.108 76.149,46.678 127.407,59.172c80.832,19.895 168.08,-10.611 256.033,-16.044c-37.914,9.583 -77.818,17.969 -107.134,40.217c-11.036,8.385 -6.031,22.119 5.965,28.879c34.13,19.168 72.814,30.891 106.558,50.144c44.329,25.372 87.953,60.327 137.35,81.077c20.015,8.386 40.544,8.6 61.265,4.921c-0.641,4.834 0.963,10.011 5.068,14.589c23.288,26.484 69.157,46.379 116.245,64.477c27.201,11.124 54.337,21.435 77.624,30.334c5.261,2.225 10.778,4.45 15.654,6.76c-176.933,11.937 -346.423,57.546 -510.718,114.535c-189.058,65.375 -418.531,165.62 -545.425,295.129c0.064,-0.043 0.129,-0.086 0.129,-0.128c-0.129,0.085 -0.129,0.213 -0.257,0.299c-13.922,14.248 -26.303,28.923 -37.593,43.897c-1.861,2.482 -3.593,4.963 -5.389,7.488c-10.777,15.102 -20.657,30.377 -28.292,46.122c-6.414,6.332 -11.996,13.306 -16.679,19.509c-10.521,13.948 -20.401,31.49 -18.412,47.278c1.283,11.466 23.544,21.734 40.416,16.728c12.831,-4.064 24.314,-8.856 35.348,-14.076c11.034,1.711 22.71,0.471 29.639,-5.177c36.695,-30.591 84.103,-21.435 132.539,-23.788c47.473,-2.225 103.734,-35.64 142.996,-47.449c47.344,-14.461 97.447,-22.932 137.607,-45.394c16.679,-9.498 19.887,-27.596 23.095,-44.582c37.4,16.344 70.311,10.269 130.101,-8.942c53.503,-17.242 157.366,-24.387 202.593,-54.764c31.179,-21.136 21.171,-38.592 22.839,-59.813c20.015,10.867 37.529,24.13 66.59,30.035c3.272,0.684 6.415,0.385 9.687,0.641c-24.442,29.822 -25.597,63.621 -3.144,92.073c-163.268,147.137 -351.363,289.268 -482.747,449.967c-15.91,19.382 -30.601,39.277 -45.869,58.915c-0.192,-0.086 -0.385,-0.171 -0.577,-0.3c-7.955,10.311 -15.59,20.794 -23.416,31.147c-57.16,75.344 -110.663,152.272 -161.472,229.883c-0.128,-0.043 -0.193,-0.086 -0.256,-0.128c-2.887,4.62 -6.095,9.07 -8.79,13.605l0.065,0.043c-25.341,38.977 -50.104,77.997 -74.289,117.144c-0.192,-0.085 -0.449,-0.171 -0.641,-0.256c-45.612,-15.916 -88.146,-32.474 -129.717,-53.053c-39.582,-19.082 -81.73,-30.377 -129.46,-37.865c-19.887,-3.123 -40.223,-5.091 -60.623,-6.375c-7.25,-0.47 -14.37,-0.47 -21.684,-0.727c-13.151,-0.428 -26.239,-0.599 -39.454,-0.214c-8.788,0.214 -17.513,0.685 -26.303,1.241c-10.263,0.684 -20.528,1.626 -30.728,2.781c0.32,-0.172 0.513,-0.385 0.833,-0.556c-4.169,0.471 -8.275,1.24 -12.444,1.754c-6.352,0.813 -12.575,1.669 -18.798,2.653c-2.373,0.427 -4.94,0.598 -7.377,1.026c-0.321,0.043 -0.899,0.599 -1.347,0.728c-12.382,2.139 -24.763,4.45 -36.824,7.359c0.385,-0.171 0.77,-0.599 1.155,-0.685c-3.978,0.941 -7.891,1.84 -11.869,2.781c-20.528,3.508 -40.352,7.915 -59.533,14.932c-6.928,2.567 -13.472,5.562 -20.143,8.385c-3.529,-53.908 -4.941,-107.945 -2.952,-161.897c0.193,0 0.385,0.043 0.513,0.043c0.386,-12.194 1.54,-24.302 1.925,-36.495c-0.129,0 -0.257,0 -0.385,-0.043c1.475,-26.441 2.758,-52.925 5.069,-79.238c11.868,-136.311 38.041,-271.597 71.85,-406.112l0.064,0c5.132,-21.008 11.163,-42.015 17.065,-63.193c-0.321,0 -0.578,0 -0.899,0.042c30.216,-111.796 65.501,-223.079 102.709,-333.891l0.128,0c0.963,-2.952 2.053,-5.862 2.951,-8.814c-0.064,0 -0.064,-0.043 -0.129,-0.043c16.744,-49.844 33.745,-99.603 50.938,-149.318c21.299,-61.525 44.329,-122.921 68.707,-184.06Zm-1507.52,-1290.43c-55.619,8.771 -109.508,19.895 -160.637,33.929c-5.325,1.497 -10.457,3.123 -15.782,4.62c-18.476,5.391 -36.631,11.167 -54.273,17.285c-6.864,2.439 -13.92,4.792 -20.657,7.359c-22.133,8.3 -43.752,17.029 -64.153,26.74c-238.967,113.209 -425.972,279.171 -408.907,482.741c1.924,23.018 61.586,39.704 71.722,20.066c3.401,-0.171 6.864,-0.299 10.393,-1.027c110.406,-21.82 216.065,-59.642 326.216,-80.435c145.625,-27.382 298.63,-30.72 448.553,-23.104c106.943,5.434 112.332,-25.927 100.336,-67.514c37.4,36.195 73.967,74.06 136.772,78.98c57.032,4.45 101.233,-7.915 156.147,-15.53c61.715,-8.558 117.143,3.336 174.111,-7.573c21.234,-4.15 26.173,-15.446 23.992,-28.709c-5.71,-33.501 -21.811,-64.904 -33.488,-97.164c55.685,43.683 78.972,115.904 163.14,130.194c62.036,10.611 126.573,-5.391 190.213,8.6c36.503,7.957 74.096,15.701 113.036,13.691c18.027,-0.771 32.846,-7.06 33.745,-20.195c2.18,-26.055 20.721,-63.407 5.581,-89.463c19.759,33.972 43.11,78.681 33.23,115.006c-4.554,17.542 12.382,34.228 38.684,38.634c29.318,4.621 63.961,8.9 100.785,13.734c0.192,3.894 -0.834,7.402 0,11.509c2.116,10.739 6.222,20.965 11.611,30.72c1.411,2.439 3.272,4.578 4.812,6.888c4.618,7.231 9.75,14.119 15.973,20.622c2.438,2.482 5.132,4.749 7.763,7.145c6.351,5.819 13.215,11.253 20.849,16.344c3.272,2.139 6.544,4.193 10.008,6.204c7.955,4.621 16.423,8.728 25.341,12.493c2.437,1.027 4.362,2.439 6.864,3.38c-0.513,-0.342 -0.771,-0.727 -1.219,-1.07c36.823,14.333 80.191,20.836 125.995,16.601c-9.045,8.771 -18.027,17.67 -26.816,26.869c-25.404,26.783 -51.321,53.224 -77.432,79.536c-62.613,15.317 -124.455,34.014 -184.759,56.519c-11.548,4.45 -9.558,11.039 -2.438,16.302c0.386,2.738 2.567,5.861 8.405,8.984c21.427,12.023 43.367,23.532 66.205,33.928c-28.227,30.078 -55.942,60.412 -81.923,91.688c-132.795,160.186 -250.259,340.78 -346.873,517.482c-1.539,2.695 -3.015,5.348 -4.49,8.043c0,0 0.064,0 0.128,0.043c-20.592,37.65 -40.416,75.258 -58.891,112.353c-115.924,232.449 -231.977,469.947 -307.612,710.525c-0.385,1.113 -0.834,2.311 -1.219,3.466c0.064,0 0.064,0.043 0.064,0.043c-7.185,23.103 -14.498,46.207 -20.977,69.354c-23.095,82.703 -49.206,166.604 -64.217,250.761c0,0 -0.064,-0.042 -0.129,-0.042c-4.619,26.526 -8.275,52.881 -10.328,79.494c-1.155,14.717 -4.811,33.243 -9.238,53.523c-0.514,2.61 -1.026,5.092 -1.604,7.83c-2.117,9.626 -4.234,19.51 -6.351,29.607c-1.925,9.583 -3.785,19.253 -5.453,28.922c-0.577,3.766 -0.963,7.402 -1.604,11.124c-1.026,6.846 -1.86,13.606 -2.502,20.28c-0.385,4.15 -0.577,8.129 -0.834,12.151c-0.32,6.247 -0.449,12.279 -0.256,18.269c0.064,3.851 0.256,7.616 0.577,11.295c0.578,6.076 1.668,11.766 3.015,17.371c0.706,2.909 1.155,5.99 2.053,8.685c2.695,8.001 6.094,15.403 10.97,21.692c10.008,12.622 29.19,24.516 50.873,31.661c-30.28,-0.385 -60.56,-0.685 -90.968,-0.728c-4.363,-7.401 -8.853,-14.803 -12.51,-22.504l-11.675,-3.166l0,-0.043c-16.937,-4.535 -44.715,-16.986 -62.613,-16.9c-21.555,0.128 -53.503,13.434 -73.262,18.568c-22.647,5.734 -53.055,9.627 -73.263,18.612c-7.505,3.294 -14.499,8.001 -21.298,13.049c-34.836,2.61 -69.542,5.733 -103.928,10.226c-46.253,6.032 -43.623,50.314 -1.988,59.299c94.753,20.152 194.189,27.04 293.498,29.008c-8.853,6.461 -14.884,14.547 -15.269,24.601c-0.962,32.26 51.579,41.544 89.108,45.951c167.246,19.425 338.725,17.499 508.28,6.803c6.608,4.877 14.499,8.942 23.609,11.595c43.495,13.391 93.79,14.975 141.199,16.258c110.342,2.824 220.621,3.295 331.091,6.803c144.022,4.278 292.664,4.963 428.988,-28.752c9.43,-0.042 18.603,0.343 27.906,0.257c71.146,0.77 190.148,-0.428 269.505,-28.58c84.36,-2.011 168.785,-5.006 252.889,-7.316c79.806,-1.968 159.483,-1.54 239.288,-3.894c77.817,-2.353 174.046,-5.562 239.032,-33.072c14.05,-5.947 20.722,-13.349 22.198,-20.879c57.544,-0.257 114.897,-4.749 162.497,-25.757c28.099,-12.493 34.387,-41.543 1.797,-54.122c-76.598,-29.522 -168.529,-36.752 -261.229,-35.426c-15.14,-19.039 -30.729,-37.95 -44.65,-57.417c-15.012,-21.093 -30.152,-42.1 -43.688,-63.792c0.898,-1.626 0.129,-3.808 -3.144,-4.321c-0.705,-0.129 -1.347,-0.3 -2.053,-0.429c-0.384,-0.898 -1.282,-1.668 -3.078,-2.01c-38.62,-7.274 -76.984,-15.232 -114.962,-23.66c-3.143,-0.556 -6.158,-1.283 -9.302,-1.84c1.732,0.813 3.592,1.498 5.325,2.311c-15.589,-3.381 -31.307,-6.717 -46.831,-10.269c-18.54,-4.279 -36.952,-8.856 -54.658,-14.461c-26.752,-8.642 -48.821,-22.633 -76.021,-30.591c-26.624,-8.044 -61.009,-5.348 -88.659,-1.07c-11.933,1.797 -23.223,4.835 -34.514,7.873c31.884,-75.601 62.613,-151.501 100.078,-225.262c48.756,-95.752 103.349,-189.879 161.407,-283.064c0.193,0.043 0.386,0.086 0.514,0.128c10.457,-16.728 21.491,-33.286 32.205,-50.143c-0.129,-0.043 -0.257,-0.043 -0.45,-0.086c39.39,-61.652 79.87,-122.963 121.312,-184.017l0.065,0c7.378,-10.781 14.434,-21.478 21.748,-32.259l-0.129,0c2.502,-3.637 4.875,-7.274 7.314,-10.868c25.66,-37.351 51.257,-74.788 78.009,-111.839c7.121,-2.439 13.665,-5.391 20.336,-8.386c3.785,-1.754 7.634,-3.38 11.291,-5.305c8.019,-4.15 15.268,-8.942 22.325,-13.991c2.951,-2.096 6.159,-3.893 8.918,-6.161c1.796,-1.497 3.527,-3.08 5.324,-4.706c-5.261,51.769 -73.647,115.476 -30.793,160.871c17.513,18.568 95.202,32.986 114.512,33.97c-36.887,-2.01 -58.507,-3.251 -94.369,4.579c-24.826,5.219 -33.936,24.601 -40.929,39.147c-17.064,35.555 -28.997,49.117 -54.337,79.195c-26.688,32.088 -9.751,44.924 32.269,62.594c9.366,3.936 85.13,35.383 60.624,30.334c-20.722,-4.363 -47.023,-14.761 -69.734,-9.498c-28.612,6.803 -30.408,10.269 -44.778,28.409c-38.62,49.203 -73.07,99.603 -117.977,147.865c-19.758,21.392 -84.296,65.375 -28.548,88.778c13.28,5.604 29.126,6.46 45.613,5.733c-9.046,4.065 -17.257,8.813 -24.634,14.504c-27.715,22.291 -54.594,49.844 -80.897,73.675c-18.091,16.216 10.072,32.688 33.36,35.169c58.378,6.76 116.821,-6.973 163.974,-30.249c5.58,-2.695 8.211,-5.604 9.366,-8.428c300.169,-123.178 517.646,-334.491 577.051,-566.555c20.978,-82.49 22.967,-165.62 5.517,-247.339c7.634,3.637 15.974,5.99 25.084,7.658l0,-0.085c9.431,1.754 19.566,2.524 30.215,2.652c0.065,0.086 0.129,0.171 0.129,0.257c0.642,0 1.411,-0.086 2.117,-0.086c10.521,0 21.555,-0.556 32.91,-1.411c1.027,-0.086 2.053,-0.086 3.143,-0.171c12.895,-1.113 26.047,-2.482 39.262,-3.808c-30.729,30.12 -69.798,57.845 -0.449,85.484c59.598,23.702 125.289,142.644 213.435,135.328c33.167,-2.696 136.26,-38.678 91.611,3.08c-25.598,23.917 -45.037,41.801 -45.613,72.221c-0.45,20.366 52.99,47.363 64.987,68.626c9.622,17.157 25.852,32.945 52.476,39.362c23.48,5.819 47.345,-0.984 68.579,-6.888c34.77,-9.84 -20.594,47.02 -26.302,56.861c-9.623,16.943 45.42,53.395 52.349,64.476c14.947,25.072 16.165,61.354 50.743,79.324c20.017,10.61 38.749,16.557 65.5,15.616c5.26,0.043 9.687,-0.257 13.408,-0.299c-5.773,9.241 -9.109,19.424 -12.124,28.409c-31.693,91.131 57.224,194.071 37.977,285.588c-4.17,20.536 40.737,31.66 65.885,22.761c2.759,-0.428 5.582,-0.899 7.827,-1.54c175.648,-60.198 187.902,-201.559 203.171,-318.361c2.566,-19.853 3.079,-39.277 2.629,-58.573c-0.127,-6.246 -0.834,-12.45 -1.282,-18.654c-0.899,-13.092 -2.438,-26.098 -4.619,-38.977c-1.219,-6.803 -2.437,-13.605 -3.978,-20.322c-2.823,-12.964 -6.543,-25.8 -10.713,-38.507c-1.797,-5.69 -3.271,-11.466 -5.325,-17.114c-6.351,-17.242 -13.663,-34.356 -22.004,-51.256c-3.208,-6.46 -6.928,-12.75 -10.393,-19.125c-5.966,-11.123 -12.125,-22.205 -18.862,-33.157c-4.683,-7.573 -9.622,-15.103 -14.562,-22.634c-6.542,-9.883 -13.471,-19.681 -20.592,-29.478c-5.26,-7.274 -10.521,-14.59 -16.102,-21.863c-1.347,-1.712 -2.502,-3.423 -3.849,-5.134c-0.321,-0.171 -0.451,-0.258 -0.578,-0.343c-25.79,-32.816 -53.76,-65.247 -84.233,-97.25c-80.639,-84.713 -181.999,-159.758 -293.753,-227.144c7.185,-12.878 14.113,-25.842 20.273,-38.977c3.207,-6.588 6.03,-13.134 8.98,-19.723c1.989,-4.578 4.235,-8.986 6.224,-13.606c-0.578,0.856 -1.412,1.626 -1.989,2.439c31.242,-75.558 47.601,-154.881 49.396,-235.787c9.239,7.787 17.836,15.617 28.036,23.147c9.943,7.572 27.328,8.343 40.03,4.193c72.685,-23.874 211.19,-34.699 264.821,-77.526c29.062,-23.446 -6.094,-71.451 -35.733,-107.861c51.644,24.259 102.517,55.835 107.584,93.442c2.054,13.734 27.137,24.559 47.088,19.296c58.636,-15.146 110.472,-28.794 174.239,-31.361c29.83,-1.241 41.442,-7.702 60.43,-21.007c19.825,-13.734 14.948,-35.169 1.668,-57.503c19.825,20.536 39.262,41.159 70.633,54.551c37.337,15.53 80.704,-7.958 117.398,-11.595c94.69,-9.199 121.892,-31.319 108.739,-71.237c22.711,19.724 41.251,40.26 77.945,49.373c82.822,20.238 182.066,-13.22 269.056,4.536c17.963,3.594 38.621,-3.038 28.421,-16.857c-77.947,-104.951 -322.881,-162.112 -486.277,-186.713c-235.438,-35.212 -482.042,-35.768 -720.817,-16.258c-27.328,2.268 -54.465,4.92 -81.537,8.001c-17.963,2.053 -35.798,4.492 -53.632,6.931c-8.853,1.155 -17.706,2.139 -26.432,3.422c-18.475,2.611 -36.759,5.734 -55.105,8.729c-74.995,-181.622 -213.116,-350.407 -395.758,-475.338c-91.61,-146.752 -257.444,-292.007 -477.808,-309.933c-23.929,-2.011 -24.827,12.792 -10.713,19.809c-11.034,6.119 -19.695,13.777 -27.137,22.077c0.065,-0.171 0.128,-0.342 0.193,-0.514c-0.256,0.257 -0.321,0.557 -0.577,0.813c-2.759,3.167 -4.62,6.717 -6.994,10.098c-3.592,5.262 -7.056,10.482 -9.75,16.172c-2.053,4.407 -3.849,8.729 -5.389,13.264c-0.065,0.256 -0.193,0.47 -0.321,0.727c-127.599,-26.826 -262.577,-38.378 -402.365,-29.992c-62.869,3.85 -130.165,10.653 -197.846,20.536c0,-0.128 -0.192,-0.256 -0.257,-0.385c-11.675,1.712 -23.351,3.766 -35.091,5.691c-6.286,0.984 -12.445,1.882 -18.732,2.995c-23.865,4.193 -47.538,8.856 -71.081,13.99c-6.993,1.498 -13.729,3.166 -20.657,4.793c-18.669,4.363 -37.081,9.027 -55.235,14.032c-6.48,1.755 -12.832,3.466 -19.246,5.306c-23.352,6.931 -46.318,14.247 -68.387,22.419c-3.144,1.155 -6.159,2.482 -9.302,3.68c-11.098,4.192 -22.132,8.428 -32.782,13.006c-0.642,-0.899 -0.962,-1.754 -1.668,-2.653c0.128,0.043 0.193,0.043 0.321,0.086c-0.577,-0.684 -0.962,-1.241 -1.54,-1.968c-7.313,-8.6 -15.46,-16.472 -24.506,-23.574c20.208,-14.59 39.902,-29.522 61.458,-43.128c235.119,-148.249 548.247,-236.171 890.245,-215.634c47.151,2.695 206.699,52.411 235.887,-3.723c9.559,-18.611 4.299,-39.02 -8.403,-59.813c23.737,23.532 43.496,49.202 60.496,75.644c9.301,14.418 36.888,29.692 56.646,36.196c58.571,19.766 140.366,9.754 204.133,21.777c46.896,9.113 89.108,21.606 136.196,29.693c159.868,27.595 71.531,-128.055 22.646,-219.786c88.274,60.797 120.479,141.019 145.627,228.257c10.521,36.367 18.924,42.057 64.473,61.481c72.556,31.191 187.71,39.876 269.119,64.092c44.715,13.349 62.036,17.842 103.03,5.904c9.237,-2.61 12.702,-10.268 13.471,-16.215c6.095,-48.86 2.438,-97.164 -8.019,-144.869c54.466,65.803 73.327,152.613 70.889,213.111c-0.577,18.055 10.457,43.554 36.76,52.496c65.756,21.906 270.273,78.853 333.27,37.309c30.859,-20.366 -1.09,-119.583 -7.762,-145.254c-3.785,-14.547 -8.66,-29.094 -14.112,-43.641c-2.567,-6.803 -5.711,-13.477 -8.534,-20.28c-3.015,-6.888 -6.094,-13.776 -9.558,-20.665c-4.491,-9.07 -9.301,-17.97 -14.499,-26.826c-2.308,-3.893 -4.81,-7.701 -7.248,-11.551c-14.37,-23.019 -30.473,-45.566 -50.168,-66.446c-115.924,-123.947 -275.792,-221.153 -472.803,-286.143c-439.124,-144.784 -967.356,-170.113 -1423.35,-40.218c-59.341,16.899 -113.678,37.008 -165.128,59.213l0,-0.042c-0.385,0.171 -0.771,0.342 -1.091,0.513c-30.408,13.135 -60.047,26.869 -88.466,41.501c34.77,-37.179 65.243,-77.055 101.36,-111.154c31.82,-30.206 180.012,-90.618 166.348,-131.477c-15.012,-45.524 -66.527,-85.399 -121.89,-113.423c-148,-74.189 92.893,5.134 144.215,13.391c87.889,13.991 98.089,-18.012 152.747,-58.786c68.9,-51.512 227.677,-106.961 248.078,-176.829c5.517,-18.868 -8.853,-37.265 -30.729,-54.208c50.809,15.403 100.014,31.275 149.86,22.718c91.93,-15.744 130.55,-100.372 235.504,-117.871c18.091,-3.124 27.136,-15.275 22.517,-27.04c-24.057,-60.627 -113.357,-81.933 -176.868,-117.231c101.425,6.461 193.932,48.133 269.826,88.522c17.448,9.327 36.694,9.712 57.672,11.252c34.002,2.225 66.527,-20.622 88.787,-33.757c59.791,-35.254 135.49,-62.337 212.217,-75.729c1.412,-0.171 2.759,-0.727 3.849,-0.984c20.913,-0.684 22.967,-22.505 -0.256,-31.703c-22.389,-8.643 -42.341,-17.457 -61.65,-26.27c-97.576,-44.539 -167.952,-89.206 -302.159,-110.256c-123.301,-19.254 -267.837,-9.199 -391.587,2.567c-226.458,21.478 -406.983,96.907 -569.161,193.772c0.257,-0.214 0.385,-0.428 0.642,-0.642c-1.412,0.899 -2.824,1.84 -4.234,2.696c-19.311,11.552 -38.107,23.702 -56.968,35.853c-8.981,5.733 -18.091,11.252 -27.008,17.157c-27.072,17.969 -53.76,36.367 -80.191,55.107c-181.167,128.44 -293.69,278.999 -384.851,439.655c-62.676,79.067 -116.564,159.716 -162.178,242.119c-0.834,-3.851 -1.924,-7.701 -2.758,-11.552c-1.668,-7.444 -3.335,-14.846 -5.196,-22.248c-0.962,-3.594 -1.668,-7.188 -2.566,-10.782c0,0.429 -0.129,0.899 -0.193,1.413c-98.025,-366.495 -479.732,-713.179 -1026.18,-803.284c-145.241,-23.831 -382.477,-43.384 -576.282,-13.477c0.065,-0.128 0,-0.299 0.065,-0.471c-6.865,1.113 -13.536,2.482 -20.337,3.68c-6.865,1.198 -13.729,2.396 -20.529,3.722c-13.471,2.738 -26.687,5.819 -39.581,9.07c-4.555,1.156 -9.239,2.14 -13.794,3.338c-16.807,4.621 -33.038,9.883 -48.563,15.616c-4.362,1.583 -8.276,3.508 -12.445,5.177c-11.163,4.493 -21.941,9.156 -32.076,14.29c-5.133,2.567 -9.88,5.306 -14.692,8.044c-8.789,4.92 -17.128,10.097 -25.019,15.573c-4.491,3.123 -8.918,6.29 -13.151,9.584c-7.763,6.075 -14.755,12.621 -21.555,19.381c-3.144,3.167 -6.608,6.161 -9.495,9.542c-9.11,10.353 -17.321,21.307 -23.865,33.158c-23.673,42.955 126.573,109.572 167.566,123.262c61.459,20.409 135.555,-3.936 205.288,-17.969c-26.687,16.729 -42.533,36.41 -18.86,67.129c38.876,50.914 160.894,94.255 228.19,126.429c89.236,42.485 225.624,33.287 312.551,-9.798c-43.816,21.692 -89.814,40.774 -96.165,79.024c-1.603,10.183 10.008,23.36 22.454,28.837c62.677,27.553 131.641,33.2 190.789,65.974c28.869,15.873 73.775,45.608 116.052,39.276c23.031,-1.198 44.586,-4.792 65.435,-11.038c47.217,-23.19 99.565,-32.474 156.725,-28.067c-19.31,13.905 -43.687,27.168 -59.854,42.657c-23.223,21.862 -31.691,35.853 -25.982,62.165c2.951,14.162 24.892,24.43 43.431,28.367c74.353,16.001 108.546,79.151 171.223,108.074c13.28,6.247 28.997,8.686 45.035,9.926c-18.026,8.129 -34.45,18.355 -45.548,37.394c-15.974,27.382 48.435,64.69 75.122,86.853l0,-0.043c4.62,3.594 8.148,6.974 9.944,9.712c62.87,92.287 109.766,191.334 125.867,291.792c-9.43,-11.295 -19.63,-22.334 -30.408,-33.243c-204.775,-211.443 -629.977,-348.055 -974.155,-378.26c-209.137,-18.441 -466.004,-23.66 -694.451,12.022c0.192,-0.043 0.385,-0.085 0.513,-0.128c-0.641,0.085 -1.219,0.256 -1.861,0.299Z" style="fill:#daa520;fill-rule:nonzero;stroke:#000;stroke-width:3.46px;"/><text x="7147.23px" y="6327.87px" style="font-family:'Ebrima';font-size:1604.04px;fill:#daa520;stroke:#000;stroke-width:2.74px;">D<tspan x="8135.7px 8625.81px 9363.04px 10080.3px " y="6327.87px 6327.87px 6327.87px 6327.87px ">ream</tspan></text><text x="7218.09px" y="6327.87px" style="font-family:'Ebrima';font-size:1604.04px;fill:#daa520;fill-opacity:0.33;">D<tspan x="8206.57px 8696.67px 9433.9px 10151.2px " y="6327.87px 6327.87px 6327.87px 6327.87px ">ream</tspan></text><text x="459.794px" y="6326.44px" style="font-family:'Ebrima';font-size:1725.83px;fill:#daa520;stroke:#000;stroke-width:2.74px;">E<tspan x="1227.07px 2533.52px 3326.72px 3854.05px 4625.77px 4993.11px " y="6326.44px 6326.44px 6326.44px 6326.44px 6326.44px 6326.44px ">merald</tspan></text><text x="530.657px" y="6326.44px" style="font-family:'Ebrima';font-size:1725.83px;fill:#daa520;fill-opacity:0.33;">E<tspan x="1297.94px 2604.39px 3397.59px 3924.91px 4696.63px 5063.98px " y="6326.44px 6326.44px 6326.44px 6326.44px 6326.44px 6326.44px ">merald</tspan></text></g></g><text x="3230.63px" y="7754.79px" style="font-family:'Ebrima';font-size:982.458px;fill:#daa520;stroke:#000;stroke-width:2.74px;">A<tspan x="3921.67px 4551.5px 5096.59px 5469.04px 5832.09px 6754.86px 7315.12px 7921.41px 8284.45px " y="7754.79px 7754.79px 7754.79px 7754.79px 7754.79px 7754.79px 7754.79px 7754.79px 7754.79px ">partments</tspan></text><path d="M2396.12,7460.85l-2360.12,0c-19.881,0 -35.998,16.117 -35.998,35.998c0,37.208 0,89.904 0,89.904l2396.12,0l0,-125.902Z" style="fill:#daa520;"/><path d="M11794.5,7433.9c0,-9.548 -3.793,-18.705 -10.545,-25.456c-6.751,-6.752 -15.908,-10.544 -25.455,-10.544l-2360.12,0l0,125.902l2396.12,0l0,-89.902Z" style="fill:#daa520;"/></g></svg>