<?xml version="1.0" encoding="UTF-8" standalone="no"?><!DOCTYPE svg PUBLIC "-//W3C//DTD SVG 1.1//EN" "http://www.w3.org/Graphics/SVG/1.1/DTD/svg11.dtd"><svg width="100%" height="100%" viewBox="0 0 49146 33263" version="1.1" xmlns="http://www.w3.org/2000/svg" xmlns:xlink="http://www.w3.org/1999/xlink" xml:space="preserve" xmlns:serif="http://www.serif.com/" style="fill-rule:evenodd;clip-rule:evenodd;stroke-linejoin:round;stroke-miterlimit:2;"><g><g><g><path d="M29797.3,12006.3c8.284,-12.3 12.029,-23.713 18.175,-35.834c18.713,4.813 37.421,9.446 56.667,13.905c-24.592,4.991 -49.717,13.908 -74.842,21.929Zm2506.75,-1150.02c60.68,-53.304 106.121,-113.562 139.534,-178.808c9.621,-6.417 20.317,-11.763 29.671,-18.896c55.329,-40.646 57.47,-100.363 39.562,-163.117c2.942,-11.408 5.613,-23.175 8.017,-34.762c15.504,8.912 30.204,17.65 44.637,26.562c-24.854,149.213 -62.279,293.792 -108.254,427.138c-48.65,-19.792 -102.108,-38.688 -153.166,-58.117Zm-4791.38,-3309.58c70.833,22.821 143.808,45.458 217.85,68.1c290.024,89.312 596.62,181.121 859.645,303.95c-0.27,-0.179 -0.27,-0.358 -0.533,-0.538c151.287,70.238 288.95,150.105 398.279,246.905c60.675,53.304 267.838,115.162 337.867,32.445c75.117,-88.42 105.587,-181.3 109.062,-277.208c13.629,52.054 25.392,105.179 35.28,157.413c29.941,155.983 -22.988,391.479 44.108,541.404c102.646,230.504 449.871,332.471 748.446,459.046c-45.442,191.816 -86.609,384.525 -86.609,572.779c-120.016,-201.804 -256.875,-399.325 -425.812,-585.617c-63.35,-69.525 -134.983,-136.554 -210.367,-201.979c-3.737,-3.029 -7.483,-5.883 -11.225,-9.092c-71.904,-62.037 -149.421,-121.937 -230.412,-180.229c-1.871,-1.429 -3.213,-2.675 -5.079,-3.925c0,0.179 0,0.179 -0.267,0.358c-429.292,-308.408 -967.1,-567.966 -1474.98,-784.208c-506.804,-214.992 -1044.88,-351.013 -1593.65,-416.438c-8.55,-51.166 -29.938,-102.504 -59.609,-153.85c469.117,27.1 936.625,97.338 1348.01,230.684Zm2715.79,2194.5c35.55,18.183 82.329,28.341 125.633,31.733c-27.266,13.725 -53.196,33.692 -76.446,57.579c-15.775,-29.95 -32.616,-59.183 -49.187,-89.312Zm-6320.62,-67.563c39.292,-97.337 80.725,-193.246 121.354,-288.979c-1.071,-0.175 -1.875,-0.175 -2.675,-0.354c12.3,-29.238 25.125,-58.475 37.688,-87.708c0.804,0 1.608,0.179 2.141,0.179c100.775,-235.138 205.555,-469.209 321.567,-701.317c24.054,-47.775 47.842,-97.154 72.167,-146.533c308.733,157.766 601.166,195.025 916.579,168.462c-2.138,2.675 -4.808,4.634 -6.95,7.309c-31.271,39.22 26.733,91.987 74.846,110.17c145.412,53.659 284.679,90.205 442.654,124.967c227.742,50.45 317.287,194.492 530.858,246.55c336.804,82.896 700.334,-44.212 1066.81,-66.85c-157.98,39.929 -324.242,74.871 -446.396,167.571c-45.979,34.937 -25.129,92.162 24.854,120.329c142.208,79.867 303.392,128.713 443.992,208.933c184.704,105.717 366.475,251.363 572.291,337.821c83.4,34.942 168.938,35.834 255.275,20.504c-2.671,20.142 4.009,41.713 21.117,60.788c97.033,110.35 288.15,193.246 484.354,268.654c113.333,46.35 226.404,89.313 323.433,126.392c21.917,9.271 44.905,18.541 65.221,28.166c-737.216,49.738 -1443.43,239.775 -2127.99,477.23c-787.738,272.395 -1743.88,690.083 -2272.6,1229.7c0.267,-0.179 0.534,-0.359 0.534,-0.534c-0.534,0.355 -0.534,0.888 -1.067,1.246c-58.008,59.367 -109.596,120.513 -156.642,182.904c-7.75,10.342 -14.966,20.68 -22.45,31.2c-44.908,62.925 -86.075,126.571 -117.883,192.175c-26.729,26.384 -49.987,55.442 -69.5,81.288c-43.837,58.117 -85.004,131.208 -76.712,196.992c5.345,47.775 98.1,90.558 168.4,69.7c53.458,-16.934 101.308,-36.9 147.283,-58.65c45.975,7.129 94.625,1.962 123.492,-21.571c152.895,-127.463 350.433,-89.313 552.245,-99.117c197.805,-9.271 432.23,-148.5 595.817,-197.704c197.267,-60.254 406.033,-95.55 573.367,-189.142c69.496,-39.575 82.862,-114.983 96.229,-185.758c155.833,68.1 292.958,42.787 542.088,-37.258c222.929,-71.842 655.687,-101.613 844.137,-228.184c129.908,-88.066 88.208,-160.8 95.158,-249.221c83.4,45.28 156.375,100.542 277.459,125.146c13.637,2.85 26.733,1.604 40.362,2.671c-101.841,124.258 -106.654,265.088 -13.096,383.638c-680.283,613.07 -1464.02,1205.28 -2011.44,1874.86c-66.292,80.758 -127.505,163.654 -191.125,245.479c-0.801,-0.358 -1.605,-0.712 -2.4,-1.25c-33.15,42.963 -64.959,86.642 -97.567,129.779c-238.171,313.934 -461.1,634.467 -672.8,957.846c-0.533,-0.179 -0.804,-0.358 -1.071,-0.533c-12.025,19.25 -25.392,37.792 -36.621,56.687l0.271,0.18c-105.588,162.404 -208.767,324.987 -309.537,488.1c-0.8,-0.355 -1.875,-0.713 -2.675,-1.067c-190.05,-66.317 -367.275,-135.308 -540.484,-221.054c-164.925,-79.509 -340.541,-126.571 -539.416,-157.771c-82.863,-13.013 -167.601,-21.213 -252.6,-26.563c-30.205,-1.958 -59.875,-1.958 -90.346,-3.029c-54.8,-1.783 -109.329,-2.496 -164.392,-0.891c-36.621,0.891 -72.975,2.854 -109.596,5.17c-42.766,2.85 -85.533,6.775 -128.033,11.588c1.333,-0.717 2.137,-1.604 3.471,-2.317c-17.371,1.963 -34.484,5.167 -51.854,7.309c-26.467,3.387 -52.396,6.954 -78.325,11.054c-9.884,1.779 -20.58,2.491 -30.734,4.275c-1.341,0.179 -3.746,2.496 -5.612,3.033c-51.592,8.913 -103.179,18.542 -153.434,30.663c1.6,-0.713 3.205,-2.496 4.813,-2.855c-16.575,3.921 -32.879,7.667 -49.454,11.588c-85.534,14.617 -168.134,32.979 -248.054,62.217c-28.871,10.695 -56.138,23.175 -83.934,34.937c-14.704,-224.617 -20.583,-449.771 -12.296,-674.571c0.805,0 1.6,0.179 2.138,0.179c1.604,-50.808 6.412,-101.258 8.017,-152.062c-0.534,0 -1.067,0 -1.605,-0.179c6.15,-110.171 11.496,-220.521 21.121,-330.159c49.45,-567.962 158.509,-1131.65 299.379,-1692.13l0.263,0c21.387,-87.533 46.517,-175.062 71.104,-263.304c-1.337,0 -2.404,0 -3.742,0.175c125.9,-465.817 272.917,-929.496 427.955,-1391.21l0.533,0c4.008,-12.3 8.554,-24.425 12.292,-36.725c-0.263,0 -0.263,-0.179 -0.534,-0.179c69.767,-207.683 140.6,-415.012 212.238,-622.158c88.746,-256.354 184.704,-512.171 286.283,-766.917Zm-6281.33,-5376.79c-231.75,36.545 -456.284,82.895 -669.325,141.37c-22.184,6.238 -43.567,13.013 -65.754,19.25c-76.984,22.463 -152.63,46.53 -226.138,72.021c-28.6,10.163 -58.004,19.967 -86.075,30.663c-92.217,34.583 -182.296,70.954 -267.3,111.416c-995.696,471.705 -1774.89,1163.21 -1703.78,2011.42c8.021,95.909 256.608,165.434 298.846,83.609c14.166,-0.713 28.6,-1.246 43.304,-4.28c460.025,-90.916 900.271,-248.508 1359.23,-335.145c606.775,-114.092 1244.29,-128 1868.98,-96.267c445.596,22.642 468.046,-108.029 418.062,-281.308c155.838,150.812 308.2,308.583 569.884,329.083c237.637,18.542 421.804,-32.979 650.616,-64.708c257.146,-35.659 488.096,13.9 725.459,-31.555c88.475,-17.291 109.058,-64.358 99.971,-119.62c-23.792,-139.588 -90.884,-270.434 -139.534,-404.85c232.021,182.012 329.05,482.933 679.75,542.475c258.484,44.212 527.388,-22.463 792.554,35.833c152.092,33.154 308.734,65.421 470.984,57.046c75.112,-3.213 136.854,-29.417 140.6,-84.146c9.087,-108.563 86.337,-264.196 23.258,-372.763c82.329,141.55 179.625,327.838 138.458,479.192c-18.979,73.092 51.592,142.617 161.184,160.975c122.158,19.254 266.5,37.083 419.933,57.225c0.8,16.225 -3.475,30.842 0,47.954c8.821,44.746 25.925,87.354 48.383,128c5.875,10.163 13.629,19.075 20.046,28.7c19.242,30.129 40.629,58.829 66.558,85.925c10.159,10.342 21.384,19.788 32.342,29.771c26.463,24.246 55.063,46.888 86.875,68.1c13.633,8.913 27.263,17.471 41.7,25.85c33.142,19.254 68.429,36.367 105.583,52.054c10.159,4.279 18.175,10.163 28.6,14.084c-2.137,-1.425 -3.208,-3.03 -5.079,-4.459c153.429,59.721 334.129,86.817 524.979,69.171c-37.687,36.546 -75.108,73.625 -111.729,111.954c-105.854,111.596 -213.841,221.767 -322.637,331.4c-260.884,63.821 -518.563,141.725 -769.825,235.496c-48.117,18.542 -39.829,45.996 -10.159,67.925c1.605,11.408 10.692,24.421 35.017,37.433c89.279,50.096 180.696,98.05 275.858,141.367c-117.616,125.325 -233.091,251.717 -341.35,382.033c-553.312,667.442 -1042.75,1419.92 -1445.3,2156.18c-6.416,11.23 -12.562,22.284 -18.708,33.513c0,0 0.263,0 0.533,0.179c-85.804,156.875 -168.4,313.575 -245.383,468.138c-483.017,968.537 -966.567,1958.11 -1281.71,2960.52c-1.609,4.638 -3.475,9.63 -5.084,14.442c0.271,0 0.271,0.179 0.271,0.179c-29.937,96.263 -60.408,192.529 -87.408,288.975c-96.229,344.596 -205.025,694.184 -267.571,1044.84c0,0 -0.263,-0.175 -0.533,-0.175c-19.246,110.525 -34.484,220.337 -43.034,331.225c-4.812,61.321 -20.05,138.512 -38.491,223.012c-2.142,10.875 -4.28,21.217 -6.684,32.625c-8.825,40.109 -17.641,81.292 -26.462,123.363c-8.021,39.929 -15.775,80.221 -22.725,120.508c-2.4,15.692 -4.009,30.842 -6.679,46.35c-4.275,28.525 -7.75,56.692 -10.425,84.5c-1.605,17.292 -2.409,33.871 -3.475,50.629c-1.334,26.029 -1.875,51.163 -1.071,76.121c0.271,16.046 1.071,31.733 2.408,47.063c2.404,25.316 6.95,49.025 12.563,72.379c2.937,12.121 4.812,24.958 8.55,36.187c11.229,33.338 25.395,64.179 45.712,90.384c41.7,52.591 121.621,102.15 211.971,131.92c-126.167,-1.604 -252.333,-2.854 -379.033,-3.033c-18.18,-30.837 -36.892,-61.679 -52.13,-93.767l-48.645,-13.191l0,-0.179c-70.571,-18.896 -186.313,-70.775 -260.888,-70.417c-89.812,0.533 -222.929,55.975 -305.258,77.367c-94.359,23.891 -221.059,40.112 -305.263,77.55c-31.271,13.725 -60.408,33.337 -88.737,54.37c-145.15,10.875 -289.763,23.888 -433.034,42.609c-192.725,25.133 -181.762,209.641 -8.283,247.079c394.8,83.967 809.121,112.667 1222.9,120.867c-36.887,26.92 -62.016,60.612 -63.616,102.504c-4.013,134.416 214.908,173.1 371.283,191.462c696.854,80.938 1411.35,72.913 2117.83,28.346c27.538,20.321 60.417,37.258 98.371,48.313c181.229,55.795 390.796,62.395 588.329,67.741c459.758,11.767 919.254,13.729 1379.55,28.346c600.092,17.825 1219.43,20.679 1787.45,-119.8c39.296,-0.175 77.517,1.429 116.275,1.071c296.442,3.208 792.287,-1.783 1122.94,-119.083c351.505,-8.38 703.271,-20.859 1053.7,-30.484c332.525,-8.2 664.512,-6.416 997.037,-16.225c324.238,-9.804 725.192,-23.175 995.967,-137.8c58.541,-24.779 86.337,-55.621 92.487,-86.996c239.767,-1.07 478.738,-19.787 677.075,-107.32c117.079,-52.055 143.275,-173.096 7.484,-225.509c-319.159,-123.008 -702.2,-153.133 -1088.45,-147.608c-63.088,-79.329 -128.038,-158.125 -186.042,-239.238c-62.55,-87.887 -125.633,-175.416 -182.033,-265.8c3.741,-6.775 0.533,-15.866 -13.1,-18.004c-2.938,-0.537 -5.613,-1.25 -8.555,-1.787c-1.604,-3.742 -5.341,-6.95 -12.829,-8.375c-160.916,-30.309 -320.762,-63.467 -479.004,-98.584c-13.1,-2.316 -25.662,-5.345 -38.762,-7.666c7.22,3.387 14.97,6.241 22.187,9.629c-64.95,-14.088 -130.442,-27.988 -195.129,-42.788c-77.25,-17.829 -153.967,-36.9 -227.742,-60.254c-111.466,-36.008 -203.416,-94.304 -316.75,-127.462c-110.933,-33.517 -254.208,-22.284 -369.412,-4.459c-49.721,7.488 -96.767,20.146 -143.809,32.805c132.846,-315.005 260.888,-631.255 416.992,-938.592c203.146,-398.967 430.621,-791.163 672.529,-1179.43c0.804,0.179 1.604,0.358 2.142,0.533c43.567,-69.7 89.542,-138.692 134.183,-208.929c-0.533,-0.179 -1.066,-0.179 -1.871,-0.359c164.121,-256.883 332.788,-512.345 505.467,-766.737l0.267,0c30.741,-44.921 60.146,-89.492 90.616,-134.413l-0.533,0c10.425,-15.154 20.313,-30.308 30.471,-45.283c106.921,-155.629 213.575,-311.617 325.042,-465.996c29.666,-10.162 56.933,-22.462 84.729,-34.941c15.775,-7.309 31.812,-14.084 47.05,-22.105c33.412,-17.291 63.616,-37.258 93.016,-58.295c12.3,-8.734 25.667,-16.221 37.159,-25.671c7.483,-6.238 14.7,-12.834 22.183,-19.609c-21.917,215.705 -306.858,481.15 -128.304,670.296c72.975,77.367 396.675,137.442 477.137,141.542c-153.7,-8.375 -243.779,-13.546 -393.204,19.079c-103.446,21.746 -141.4,102.504 -170.537,163.113c-71.1,148.145 -120.821,204.654 -226.409,329.979c-111.195,133.7 -40.625,187.183 134.459,260.808c39.025,16.4 354.708,147.429 252.596,126.392c-86.338,-18.179 -195.93,-61.504 -290.555,-39.575c-119.216,28.346 -126.7,42.787 -186.575,118.371c-160.916,205.012 -304.458,415.012 -491.57,616.104c-82.33,89.133 -351.234,272.396 -118.95,369.908c55.329,23.35 121.354,26.917 190.054,23.888c-37.692,16.937 -71.909,36.72 -102.646,60.433c-115.475,92.879 -227.471,207.683 -337.067,306.979c-75.379,67.567 41.967,136.2 138.996,146.538c243.242,28.166 486.758,-29.055 683.225,-126.038c23.254,-11.229 34.213,-23.35 39.025,-35.117c1250.71,-513.241 2156.86,-1393.71 2404.38,-2360.64c87.409,-343.709 95.696,-690.084 22.988,-1030.58c31.812,15.155 66.562,24.959 104.521,31.909l0,-0.354c39.291,7.308 81.525,10.516 125.895,11.05c0.271,0.358 0.534,0.712 0.534,1.07c2.675,0 5.883,-0.358 8.821,-0.358c43.841,0 89.816,-2.317 137.129,-5.879c4.279,-0.358 8.55,-0.358 13.096,-0.713c53.729,-4.637 108.525,-10.341 163.587,-15.866c-128.033,125.5 -290.825,241.021 -1.867,356.183c248.325,98.758 522.038,594.35 889.313,563.867c138.196,-11.234 567.746,-161.159 381.708,12.833c-106.658,99.654 -187.65,174.171 -190.05,300.921c-1.875,84.858 220.788,197.346 270.775,285.942c40.096,71.487 107.721,137.27 218.654,164.008c97.83,24.246 197.271,-4.1 285.746,-28.7c144.875,-41 -85.808,195.917 -109.596,236.921c-40.091,70.596 189.255,222.479 218.121,268.65c62.284,104.466 67.354,255.641 211.434,330.516c83.4,44.209 161.45,68.988 272.912,65.067c21.921,0.179 40.363,-1.071 55.871,-1.246c-24.054,38.504 -37.958,80.934 -50.517,118.371c-132.054,379.713 238.429,808.629 158.234,1189.95c-17.375,85.567 169.741,131.917 274.525,94.838c11.491,-1.784 23.254,-3.746 32.612,-6.417c731.867,-250.825 782.925,-839.829 846.542,-1326.5c10.696,-82.721 12.833,-163.654 10.958,-244.054c-0.533,-26.025 -3.475,-51.875 -5.346,-77.725c-3.741,-54.55 -10.154,-108.742 -19.241,-162.405c-5.084,-28.345 -10.159,-56.687 -16.575,-84.675c-11.767,-54.016 -27.263,-107.5 -44.638,-160.445c-7.492,-23.709 -13.633,-47.775 -22.192,-71.309c-26.462,-71.841 -56.929,-143.15 -91.679,-213.566c-13.371,-26.917 -28.871,-53.125 -43.308,-79.688c-24.854,-46.346 -50.517,-92.521 -78.588,-138.154c-19.512,-31.554 -40.095,-62.929 -60.675,-94.308c-27.262,-41.18 -56.133,-82.005 -85.8,-122.825c-21.92,-30.309 -43.837,-60.792 -67.095,-91.096c-5.613,-7.134 -10.425,-14.263 -16.038,-21.392c-1.337,-0.712 -1.875,-1.075 -2.404,-1.429c-107.458,-136.733 -224.004,-271.862 -350.975,-405.208c-335.996,-352.971 -758.329,-665.659 -1223.97,-946.434c29.938,-53.658 58.808,-107.675 84.471,-162.404c13.363,-27.45 25.125,-54.725 37.421,-82.179c8.287,-19.075 17.641,-37.442 25.929,-56.692c-2.404,3.567 -5.879,6.775 -8.287,10.163c130.175,-314.825 198.341,-645.338 205.82,-982.446c38.496,32.446 74.313,65.071 116.813,96.446c41.433,31.55 113.871,34.762 166.796,17.471c302.854,-99.475 879.958,-144.58 1103.42,-323.025c121.087,-97.692 -25.396,-297.713 -148.888,-449.421c215.183,101.079 427.154,232.646 448.262,389.341c8.559,57.225 113.071,102.33 196.205,80.4c244.312,-63.108 460.295,-119.975 725.991,-130.67c124.296,-5.171 172.679,-32.092 251.796,-87.53c82.6,-57.225 62.283,-146.537 6.95,-239.595c82.6,85.566 163.588,171.495 294.304,227.295c155.571,64.709 336.263,-33.158 489.159,-48.312c394.541,-38.329 507.879,-130.496 453.079,-296.821c94.625,82.183 171.875,167.75 324.771,205.721c345.091,84.325 758.608,-55.083 1121.06,18.9c74.846,14.975 160.925,-12.658 118.425,-70.238c-324.779,-437.295 -1345.34,-675.466 -2026.15,-777.97c-980.996,-146.717 -2008.51,-149.034 -3003.4,-67.742c-113.871,9.45 -226.942,20.5 -339.742,33.337c-74.842,8.555 -149.158,18.717 -223.462,28.88c-36.888,4.812 -73.775,8.912 -110.134,14.258c-76.983,10.879 -153.162,23.892 -229.608,36.371c-312.475,-756.758 -887.983,-1460.03 -1648.99,-1980.58c-381.704,-611.467 -1072.68,-1216.7 -1990.87,-1291.39c-99.7,-8.379 -103.442,53.3 -44.634,82.538c-45.979,25.496 -82.066,57.404 -113.071,91.987c0.267,-0.712 0.534,-1.425 0.805,-2.141c-1.071,1.071 -1.338,2.321 -2.409,3.387c-11.491,13.196 -19.246,27.988 -29.137,42.075c-14.971,21.925 -29.404,43.675 -40.629,67.384c-8.555,18.362 -16.038,36.37 -22.455,55.266c-0.266,1.067 -0.8,1.959 -1.337,3.029c-531.663,-111.775 -1094.07,-159.908 -1676.52,-124.966c-261.954,16.041 -542.354,44.387 -824.362,85.566c0,-0.533 -0.796,-1.066 -1.067,-1.604c-48.646,7.134 -97.296,15.692 -146.212,23.713c-26.196,4.1 -51.859,7.841 -78.05,12.479c-99.442,17.471 -198.075,36.9 -296.171,58.292c-29.142,6.241 -57.204,13.191 -86.075,19.97c-77.784,18.18 -154.5,37.613 -230.146,58.467c-27,7.313 -53.463,14.442 -80.192,22.108c-97.296,28.88 -192.991,59.363 -284.946,93.413c-13.095,4.812 -25.658,10.342 -38.754,15.333c-46.246,17.467 -92.221,35.117 -136.591,54.192c-2.675,-3.746 -4.009,-7.308 -6.95,-11.054c0.533,0.179 0.804,0.179 1.337,0.358c-2.408,-2.85 -4.008,-5.171 -6.417,-8.2c-30.47,-35.833 -64.42,-68.633 -102.108,-98.225c84.2,-60.792 166.258,-123.008 256.071,-179.7c979.667,-617.704 2284.37,-984.046 3709.35,-898.475c196.463,11.229 861.246,218.379 982.867,-15.512c39.829,-77.546 17.908,-162.584 -35.017,-249.221c98.904,98.05 181.233,205.008 252.071,315.183c38.754,60.075 153.696,123.717 236.025,150.817c244.046,82.358 584.858,40.641 850.554,90.737c195.396,37.971 371.283,90.025 567.479,123.721c666.121,114.979 298.05,-533.562 94.363,-915.775c367.804,253.321 501.996,587.579 606.775,951.071c43.841,151.529 78.85,175.237 268.641,256.171c302.313,129.962 782.125,166.15 1121.33,267.05c186.317,55.621 258.484,74.341 429.292,24.6c38.488,-10.875 52.925,-42.784 56.133,-67.563c25.392,-203.583 10.155,-404.85 -33.412,-603.621c226.937,274.18 305.525,635.888 295.371,887.963c-2.409,75.229 43.566,181.475 153.162,218.733c273.984,91.275 1126.14,328.554 1388.63,155.454c128.575,-84.858 -4.545,-498.262 -32.345,-605.225c-15.767,-60.612 -36.08,-121.225 -58.796,-181.837c-10.696,-28.346 -23.796,-56.154 -35.559,-84.5c-12.562,-28.7 -25.395,-57.4 -39.825,-86.104c-18.712,-37.792 -38.758,-74.875 -60.416,-111.775c-9.617,-16.221 -20.042,-32.088 -30.196,-48.129c-59.875,-95.913 -126.971,-189.859 -209.033,-276.859c-483.017,-516.446 -1149.14,-921.471 -1970.02,-1192.26c-1829.68,-603.267 -4030.65,-708.804 -5930.62,-167.575c-247.25,70.412 -473.654,154.2 -688.033,246.721l0,-0.175c-1.6,0.712 -3.209,1.425 -4.542,2.137c-126.7,54.729 -250.196,111.954 -368.608,172.921c144.875,-154.913 271.845,-321.063 422.333,-463.142c132.579,-125.858 750.05,-377.575 693.112,-547.821c-62.545,-189.683 -277.191,-355.829 -507.87,-472.595c-616.667,-309.121 387.054,21.391 600.895,55.795c366.2,58.296 408.7,-75.05 636.446,-244.941c287.084,-214.634 948.654,-445.671 1033.66,-736.788c22.987,-78.616 -36.888,-155.271 -128.042,-225.866c211.708,64.179 416.725,130.312 624.417,94.658c383.045,-65.6 543.962,-418.217 981.27,-491.129c75.375,-13.017 113.063,-63.646 93.821,-112.667c-100.237,-252.612 -472.321,-341.387 -736.954,-488.462c422.608,26.92 808.054,200.554 1124.28,368.841c72.704,38.863 152.896,40.467 240.3,46.884c141.675,9.27 277.2,-85.925 369.95,-140.655c249.125,-146.891 564.542,-259.737 884.238,-315.537c5.883,-0.713 11.495,-3.029 16.037,-4.1c87.138,-2.85 95.696,-93.771 -1.067,-132.096c-93.291,-36.012 -176.42,-72.737 -256.879,-109.458c-406.566,-185.579 -699.8,-371.692 -1259,-459.4c-513.75,-80.225 -1115.98,-38.329 -1631.61,10.696c-943.575,89.491 -1695.76,403.779 -2371.5,807.383c1.067,-0.892 1.604,-1.783 2.671,-2.675c-5.879,3.746 -11.763,7.667 -17.642,11.233c-80.458,48.134 -158.779,98.759 -237.362,149.388c-37.421,23.887 -75.384,46.883 -112.538,71.487c-112.8,74.871 -223.996,151.529 -334.125,229.613c-754.862,535.166 -1223.71,1162.5 -1603.55,1831.9c-261.15,329.445 -485.683,665.483 -675.737,1008.83c-3.475,-16.046 -8.021,-32.088 -11.496,-48.134c-6.95,-31.016 -13.896,-61.858 -21.646,-92.7c-4.012,-14.975 -6.95,-29.95 -10.692,-44.925c0,1.788 -0.537,3.746 -0.804,5.888c-408.437,-1527.06 -1998.88,-2971.58 -4275.75,-3347.02c-605.171,-99.296 -1593.66,-180.766 -2401.18,-56.154c0.267,-0.533 0,-1.246 0.267,-1.962c-28.604,4.637 -56.4,10.341 -84.734,15.333c-28.604,4.992 -57.204,9.983 -85.537,15.508c-56.133,11.409 -111.2,24.246 -164.925,37.792c-18.975,4.817 -38.492,8.917 -57.471,13.908c-70.033,19.254 -137.662,41.179 -202.346,65.067c-18.179,6.596 -34.483,14.617 -51.858,21.571c-46.512,18.721 -91.417,38.15 -133.65,59.541c-21.383,10.696 -41.167,22.109 -61.212,33.517c-36.621,20.5 -71.371,42.071 -104.246,64.888c-18.717,13.012 -37.159,26.208 -54.8,39.933c-32.342,25.312 -61.48,52.587 -89.813,80.754c-13.096,13.196 -27.529,25.671 -39.558,39.758c-37.963,43.138 -72.175,88.78 -99.438,138.159c-98.637,178.979 527.388,456.55 698.192,513.591c256.075,85.038 564.808,-16.4 855.367,-74.87c-111.2,69.704 -177.221,151.708 -78.588,279.704c161.988,212.141 670.392,392.729 950.792,526.787c371.821,177.021 940.1,138.696 1302.3,-40.825c-182.567,90.384 -374.225,169.892 -400.688,329.267c-6.683,42.429 41.7,97.333 93.554,120.154c261.159,114.804 548.505,138.333 794.959,274.892c120.283,66.137 307.396,190.033 483.55,163.65c95.958,-4.992 185.771,-19.967 272.646,-45.992c196.737,-96.625 414.854,-135.308 653.02,-116.946c-80.462,57.938 -182.033,113.2 -249.391,177.738c-96.763,91.091 -132.05,149.387 -108.259,259.021c12.292,59.008 103.713,101.791 180.959,118.195c309.808,66.671 452.279,329.796 713.433,450.309c55.329,26.029 120.817,36.191 187.646,41.358c-75.113,33.871 -143.542,76.479 -189.783,155.808c-66.563,114.092 201.808,269.542 313.008,361.888l0,-0.179c19.246,14.975 33.946,29.058 41.429,40.466c261.963,384.53 457.358,797.225 524.45,1215.8c-39.296,-47.062 -81.796,-93.058 -126.7,-138.512c-853.229,-881.013 -2624.9,-1450.23 -4058.98,-1576.08c-871.4,-76.838 -1941.68,-98.584 -2893.54,50.091c0.8,-0.179 1.6,-0.354 2.138,-0.533c-2.671,0.354 -5.08,1.067 -7.755,1.246l-0.02,0Z" style="fill:#e9ba4c;fill-opacity:0.42;fill-rule:nonzero;stroke:#000;stroke-width:14.42px;"/><path d="M30092.6,12006.3c8.283,-12.3 12.029,-23.713 18.175,-35.834c18.713,4.813 37.425,9.446 56.671,13.905c-24.596,4.991 -49.721,13.908 -74.846,21.929Zm2506.76,-1150.02c60.68,-53.304 106.117,-113.562 139.534,-178.808c9.621,-6.417 20.312,-11.763 29.666,-18.896c55.334,-40.646 57.475,-100.363 39.563,-163.117c2.942,-11.408 5.612,-23.175 8.021,-34.762c15.5,8.912 30.2,17.65 44.637,26.562c-24.858,149.213 -62.283,293.792 -108.258,427.138c-48.646,-19.792 -102.109,-38.688 -153.163,-58.117Zm-4791.38,-3309.58c70.838,22.821 143.813,45.458 217.854,68.1c290.021,89.312 596.621,181.121 859.642,303.95c-0.267,-0.179 -0.267,-0.358 -0.533,-0.538c151.292,70.238 288.95,150.105 398.283,246.905c60.675,53.304 267.834,115.162 337.867,32.445c75.112,-88.42 105.583,-181.3 109.058,-277.208c13.633,52.054 25.396,105.179 35.283,157.413c29.942,155.983 -22.987,391.479 44.105,541.404c102.646,230.504 449.871,332.471 748.45,459.046c-45.442,191.816 -86.609,384.525 -86.609,572.779c-120.021,-201.804 -256.879,-399.325 -425.812,-585.617c-63.35,-69.525 -134.988,-136.554 -210.367,-201.979c-3.742,-3.029 -7.487,-5.883 -11.225,-9.092c-71.904,-62.037 -149.425,-121.937 -230.417,-180.229c-1.87,-1.429 -3.208,-2.675 -5.075,-3.925c0,0.179 0,0.179 -0.27,0.358c-429.288,-308.408 -967.096,-567.966 -1474.98,-784.208c-506.804,-214.992 -1044.88,-351.013 -1593.65,-416.438c-8.554,-51.166 -29.938,-102.504 -59.613,-153.85c469.117,27.1 936.625,97.338 1348,230.684Zm2715.79,2194.5c35.55,18.183 82.329,28.341 125.629,31.733c-27.262,13.725 -53.191,33.692 -76.446,57.579c-15.77,-29.95 -32.612,-59.183 -49.183,-89.312Zm-6320.62,-67.563c39.296,-97.337 80.725,-193.246 121.354,-288.979c-1.067,-0.175 -1.871,-0.175 -2.671,-0.354c12.296,-29.238 25.125,-58.475 37.688,-87.708c0.804,0 1.608,0.179 2.142,0.179c100.77,-235.138 205.554,-469.209 321.562,-701.317c24.058,-47.775 47.846,-97.154 72.171,-146.533c308.733,157.766 601.162,195.025 916.579,168.462c-2.137,2.675 -4.808,4.634 -6.95,7.309c-31.271,39.22 26.729,91.987 74.842,110.17c145.416,53.659 284.679,90.205 442.654,124.967c227.746,50.45 317.287,194.492 530.862,246.55c336.8,82.896 700.334,-44.212 1066.81,-66.85c-157.975,39.929 -324.242,74.871 -446.392,167.571c-45.983,34.937 -25.129,92.162 24.854,120.329c142.208,79.867 303.392,128.713 443.992,208.933c184.704,105.717 366.471,251.363 572.291,337.821c83.396,34.942 168.934,35.834 255.271,20.504c-2.671,20.142 4.013,41.713 21.117,60.788c97.033,110.35 288.154,193.246 484.354,268.654c113.338,46.35 226.404,89.313 323.433,126.392c21.921,9.271 44.909,18.541 65.225,28.166c-737.22,49.738 -1443.43,239.775 -2127.99,477.23c-787.742,272.395 -1743.88,690.083 -2272.6,1229.7c0.266,-0.179 0.537,-0.359 0.537,-0.534c-0.537,0.355 -0.537,0.888 -1.071,1.246c-58.008,59.367 -109.596,120.513 -156.637,182.904c-7.754,10.342 -14.971,20.68 -22.454,31.2c-44.905,62.925 -86.071,126.571 -117.884,192.175c-26.725,26.384 -49.983,55.442 -69.496,81.288c-43.837,58.117 -85.004,131.208 -76.716,196.992c5.346,47.775 98.1,90.558 168.4,69.7c53.462,-16.934 101.308,-36.9 147.283,-58.65c45.975,7.129 94.625,1.962 123.496,-21.571c152.896,-127.463 350.429,-89.313 552.246,-99.117c197.804,-9.271 432.225,-148.5 595.816,-197.704c197.267,-60.254 406.03,-95.55 573.363,-189.142c69.496,-39.575 82.862,-114.983 96.229,-185.758c155.833,68.1 292.963,42.787 542.088,-37.258c222.929,-71.842 655.691,-101.613 844.137,-228.184c129.913,-88.066 88.213,-160.8 95.163,-249.221c83.395,45.28 156.37,100.542 277.458,125.146c13.633,2.85 26.729,1.604 40.362,2.671c-101.841,124.258 -106.654,265.088 -13.1,383.638c-680.283,613.07 -1464.01,1205.28 -2011.44,1874.86c-66.292,80.758 -127.505,163.654 -191.121,245.479c-0.8,-0.358 -1.604,-0.712 -2.404,-1.25c-33.146,42.963 -64.959,86.642 -97.567,129.779c-238.167,313.934 -461.096,634.467 -672.8,957.846c-0.533,-0.179 -0.804,-0.358 -1.067,-0.533c-12.029,19.25 -25.396,37.792 -36.625,56.687l0.271,0.18c-105.587,162.404 -208.767,324.987 -309.537,488.1c-0.8,-0.355 -1.871,-0.713 -2.671,-1.067c-190.05,-66.317 -367.275,-135.308 -540.488,-221.054c-164.925,-79.509 -340.541,-126.571 -539.416,-157.771c-82.863,-13.013 -167.596,-21.213 -252.596,-26.563c-30.209,-1.958 -59.875,-1.958 -90.35,-3.029c-54.796,-1.783 -109.329,-2.496 -164.392,-0.891c-36.617,0.891 -72.971,2.854 -109.596,5.17c-42.762,2.85 -85.533,6.775 -128.033,11.588c1.333,-0.717 2.137,-1.604 3.471,-2.317c-17.371,1.963 -34.479,5.167 -51.85,7.309c-26.467,3.387 -52.396,6.954 -78.325,11.054c-9.888,1.779 -20.584,2.491 -30.738,4.275c-1.337,0.179 -3.746,2.496 -5.612,3.033c-51.592,8.913 -103.179,18.542 -153.434,30.663c1.605,-0.713 3.209,-2.496 4.813,-2.855c-16.575,3.921 -32.879,7.667 -49.454,11.588c-85.534,14.617 -168.134,32.979 -248.054,62.217c-28.867,10.695 -56.134,23.175 -83.93,34.937c-14.704,-224.617 -20.587,-449.771 -12.3,-674.571c0.805,0 1.605,0.179 2.138,0.179c1.608,-50.808 6.417,-101.258 8.021,-152.062c-0.538,0 -1.071,0 -1.604,-0.179c6.145,-110.171 11.491,-220.521 21.12,-330.159c49.45,-567.962 158.505,-1131.65 299.375,-1692.13l0.267,0c21.383,-87.533 46.513,-175.062 71.104,-263.304c-1.337,0 -2.408,0 -3.746,0.175c125.9,-465.817 272.921,-929.496 427.955,-1391.21l0.533,0c4.012,-12.3 8.554,-24.425 12.296,-36.725c-0.267,0 -0.267,-0.179 -0.538,-0.179c69.767,-207.683 140.604,-415.012 212.242,-622.158c88.746,-256.354 184.704,-512.171 286.279,-766.917Zm-6281.33,-5376.79c-231.746,36.545 -456.284,82.895 -669.321,141.37c-22.188,6.238 -43.571,13.013 -65.758,19.25c-76.984,22.463 -152.63,46.53 -226.138,72.021c-28.6,10.163 -58,19.967 -86.071,30.663c-92.221,34.583 -182.3,70.954 -267.304,111.416c-995.696,471.705 -1774.88,1163.21 -1703.78,2011.42c8.017,95.909 256.608,165.434 298.842,83.609c14.17,-0.713 28.6,-1.246 43.304,-4.28c460.025,-90.916 900.271,-248.508 1359.23,-335.145c606.771,-114.092 1244.29,-128 1868.97,-96.267c445.596,22.642 468.05,-108.029 418.067,-281.308c155.833,150.812 308.195,308.583 569.883,329.083c237.633,18.542 421.804,-32.979 650.612,-64.708c257.146,-35.659 488.096,13.9 725.463,-31.555c88.475,-17.291 109.054,-64.358 99.967,-119.62c-23.792,-139.588 -90.88,-270.434 -139.534,-404.85c232.021,182.012 329.05,482.933 679.75,542.475c258.484,44.212 527.388,-22.463 792.554,35.833c152.096,33.154 308.734,65.421 470.984,57.046c75.112,-3.213 136.858,-29.417 140.604,-84.146c9.083,-108.563 86.337,-264.196 23.254,-372.763c82.329,141.55 179.625,327.838 138.458,479.192c-18.975,73.092 51.592,142.617 161.184,160.975c122.158,19.254 266.504,37.083 419.937,57.225c0.8,16.225 -3.475,30.842 0,47.954c8.817,44.746 25.925,87.354 48.379,128c5.879,10.163 13.634,19.075 20.05,28.7c19.242,30.129 40.625,58.829 66.555,85.925c10.158,10.342 21.383,19.788 32.345,29.771c26.463,24.246 55.063,46.888 86.871,68.1c13.633,8.913 27.267,17.471 41.7,25.85c33.146,19.254 68.429,36.367 105.588,52.054c10.154,4.279 18.175,10.163 28.6,14.084c-2.138,-1.425 -3.213,-3.03 -5.079,-4.459c153.429,59.721 334.129,86.817 524.979,69.171c-37.688,36.546 -75.113,73.625 -111.734,111.954c-105.85,111.596 -213.837,221.767 -322.633,331.4c-260.887,63.821 -518.562,141.725 -769.829,235.496c-48.117,18.542 -39.825,45.996 -10.158,67.925c1.608,11.408 10.695,24.421 35.02,37.433c89.28,50.096 180.696,98.05 275.855,141.367c-117.613,125.325 -233.092,251.717 -341.346,382.033c-553.313,667.442 -1042.75,1419.92 -1445.3,2156.18c-6.413,11.23 -12.563,22.284 -18.709,33.513c0,0 0.267,0 0.534,0.179c-85.8,156.875 -168.4,313.575 -245.38,468.138c-483.016,968.537 -966.57,1958.11 -1281.72,2960.52c-1.604,4.638 -3.475,9.63 -5.079,14.442c0.266,0 0.266,0.179 0.266,0.179c-29.937,96.263 -60.408,192.529 -87.404,288.975c-96.229,344.596 -205.025,694.184 -267.571,1044.84c0,0 -0.266,-0.175 -0.537,-0.175c-19.246,110.525 -34.479,220.337 -43.034,331.225c-4.812,61.321 -20.045,138.512 -38.491,223.012c-2.142,10.875 -4.275,21.217 -6.684,32.625c-8.82,40.109 -17.641,81.292 -26.462,123.363c-8.021,39.929 -15.771,80.221 -22.721,120.508c-2.404,15.692 -4.012,30.842 -6.683,46.35c-4.275,28.525 -7.75,56.692 -10.425,84.5c-1.604,17.292 -2.404,33.871 -3.475,50.629c-1.334,26.029 -1.871,51.163 -1.067,76.121c0.267,16.046 1.067,31.733 2.404,47.063c2.409,25.316 6.95,49.025 12.563,72.379c2.941,12.121 4.812,24.958 8.554,36.187c11.229,33.338 25.392,64.179 45.708,90.384c41.7,52.591 121.625,102.15 211.971,131.92c-126.167,-1.604 -252.333,-2.854 -379.033,-3.033c-18.179,-30.837 -36.888,-61.679 -52.125,-93.767l-48.646,-13.191l0,-0.179c-70.571,-18.896 -186.313,-70.775 -260.888,-70.417c-89.812,0.533 -222.929,55.975 -305.258,77.367c-94.362,23.891 -221.062,40.112 -305.262,77.55c-31.271,13.725 -60.413,33.337 -88.742,54.37c-145.15,10.875 -289.758,23.888 -433.033,42.609c-192.721,25.133 -181.763,209.641 -8.284,247.079c394.804,83.967 809.121,112.667 1222.91,120.867c-36.888,26.92 -62.017,60.612 -63.621,102.504c-4.009,134.416 214.912,173.1 371.283,191.462c696.858,80.938 1411.35,72.913 2117.83,28.346c27.534,20.321 60.413,37.258 98.371,48.313c181.229,55.795 390.792,62.395 588.329,67.741c459.759,11.767 919.255,13.729 1379.55,28.346c600.092,17.825 1219.43,20.679 1787.45,-119.8c39.292,-0.175 77.513,1.429 116.275,1.071c296.442,3.208 792.284,-1.783 1122.94,-119.083c351.5,-8.38 703.271,-20.859 1053.7,-30.484c332.525,-8.2 664.512,-6.416 997.033,-16.225c324.238,-9.804 725.192,-23.175 995.967,-137.8c58.542,-24.779 86.342,-55.621 92.492,-86.996c239.766,-1.07 478.737,-19.787 677.07,-107.32c117.08,-52.055 143.28,-173.096 7.488,-225.509c-319.158,-123.008 -702.204,-153.133 -1088.45,-147.608c-63.084,-79.329 -128.038,-158.125 -186.042,-239.238c-62.55,-87.887 -125.633,-175.416 -182.033,-265.8c3.741,-6.775 0.537,-15.866 -13.1,-18.004c-2.938,-0.537 -5.613,-1.25 -8.554,-1.787c-1.6,-3.742 -5.342,-6.95 -12.825,-8.375c-160.917,-30.309 -320.767,-63.467 -479.009,-98.584c-13.096,-2.316 -25.658,-5.345 -38.758,-7.666c7.217,3.387 14.967,6.241 22.187,9.629c-64.954,-14.088 -130.445,-27.988 -195.129,-42.788c-77.25,-17.829 -153.966,-36.9 -227.741,-60.254c-111.467,-36.008 -203.421,-94.304 -316.755,-127.462c-110.933,-33.517 -254.204,-22.284 -369.412,-4.459c-49.721,7.488 -96.763,20.146 -143.808,32.805c132.85,-315.005 260.887,-631.255 416.991,-938.592c203.15,-398.967 430.621,-791.163 672.529,-1179.43c0.805,0.179 1.609,0.358 2.142,0.533c43.571,-69.7 89.546,-138.692 134.188,-208.929c-0.538,-0.179 -1.071,-0.179 -1.875,-0.359c164.125,-256.883 332.791,-512.345 505.466,-766.737l0.271,0c30.742,-44.921 60.142,-89.492 90.617,-134.413l-0.538,0c10.425,-15.154 20.313,-30.308 30.475,-45.283c106.917,-155.629 213.571,-311.617 325.038,-465.996c29.671,-10.162 56.937,-22.462 84.733,-34.941c15.771,-7.309 31.808,-14.084 47.046,-22.105c33.412,-17.291 63.617,-37.258 93.021,-58.295c12.296,-8.734 25.662,-16.221 37.158,-25.671c7.483,-6.238 14.696,-12.834 22.183,-19.609c-21.92,215.705 -306.862,481.15 -128.304,670.296c72.971,77.367 396.675,137.442 477.134,141.542c-153.696,-8.375 -243.78,-13.546 -393.205,19.079c-103.441,21.746 -141.4,102.504 -170.537,163.113c-71.1,148.145 -120.821,204.654 -226.404,329.979c-111.2,133.7 -40.629,187.183 134.454,260.808c39.025,16.4 354.708,147.429 252.6,126.392c-86.342,-18.179 -195.929,-61.504 -290.558,-39.575c-119.217,28.346 -126.7,42.787 -186.575,118.371c-160.917,205.012 -304.459,415.012 -491.571,616.104c-82.325,89.133 -351.234,272.396 -118.95,369.908c55.333,23.35 121.358,26.917 190.054,23.888c-37.692,16.937 -71.904,36.72 -102.642,60.433c-115.479,92.879 -227.475,207.683 -337.071,306.979c-75.379,67.567 41.967,136.2 139,146.538c243.242,28.166 486.755,-29.055 683.225,-126.038c23.25,-11.229 34.213,-23.35 39.025,-35.117c1250.7,-513.241 2156.86,-1393.71 2404.38,-2360.64c87.408,-343.709 95.695,-690.084 22.987,-1030.58c31.808,15.155 66.558,24.959 104.517,31.909l0,-0.354c39.296,7.308 81.525,10.516 125.896,11.05c0.27,0.358 0.537,0.712 0.537,1.07c2.675,0 5.879,-0.358 8.821,-0.358c43.837,0 89.812,-2.317 137.125,-5.879c4.279,-0.358 8.554,-0.358 13.096,-0.713c53.729,-4.637 108.529,-10.341 163.591,-15.866c-128.037,125.5 -290.825,241.021 -1.87,356.183c248.325,98.758 522.037,594.35 889.312,563.867c138.196,-11.234 567.75,-161.159 381.713,12.833c-106.659,99.654 -187.655,174.171 -190.055,300.921c-1.875,84.858 220.792,197.346 270.78,285.942c40.091,71.487 107.716,137.27 218.65,164.008c97.833,24.246 197.27,-4.1 285.745,-28.7c144.875,-41 -85.808,195.917 -109.591,236.921c-40.096,70.596 189.25,222.479 218.121,268.65c62.279,104.466 67.354,255.641 211.429,330.516c83.404,44.209 161.454,68.988 272.916,65.067c21.917,0.179 40.363,-1.071 55.867,-1.246c-24.054,38.504 -37.954,80.934 -50.517,118.371c-132.054,379.713 238.434,808.629 158.238,1189.95c-17.375,85.567 169.737,131.917 274.521,94.838c11.496,-1.784 23.258,-3.746 32.612,-6.417c731.867,-250.825 782.925,-839.829 846.546,-1326.5c10.692,-82.721 12.829,-163.654 10.954,-244.054c-0.529,-26.025 -3.475,-51.875 -5.341,-77.725c-3.746,-54.55 -10.159,-108.742 -19.246,-162.405c-5.079,-28.345 -10.154,-56.687 -16.575,-84.675c-11.763,-54.016 -27.263,-107.5 -44.638,-160.445c-7.487,-23.709 -13.629,-47.775 -22.187,-71.309c-26.463,-71.841 -56.929,-143.15 -91.684,-213.566c-13.366,-26.917 -28.866,-53.125 -43.304,-79.688c-24.858,-46.346 -50.521,-92.521 -78.591,-138.154c-19.513,-31.554 -40.092,-62.929 -60.675,-94.308c-27.259,-41.18 -56.13,-82.005 -85.8,-122.825c-21.917,-30.309 -43.838,-60.792 -67.092,-91.096c-5.613,-7.134 -10.425,-14.263 -16.038,-21.392c-1.337,-0.712 -1.879,-1.075 -2.408,-1.429c-107.458,-136.733 -224,-271.862 -350.971,-405.208c-335.996,-352.971 -758.329,-665.659 -1223.97,-946.434c29.938,-53.658 58.805,-107.675 84.471,-162.404c13.363,-27.45 25.125,-54.725 37.417,-82.179c8.287,-19.075 17.646,-37.442 25.933,-56.692c-2.408,3.567 -5.883,6.775 -8.287,10.163c130.175,-314.825 198.337,-645.338 205.816,-982.446c38.496,32.446 74.317,65.071 116.817,96.446c41.429,31.55 113.867,34.762 166.792,17.471c302.854,-99.475 879.958,-144.58 1103.42,-323.025c121.091,-97.692 -25.392,-297.713 -148.888,-449.421c215.183,101.079 427.154,232.646 448.267,389.341c8.558,57.225 113.071,102.33 196.2,80.4c244.316,-63.108 460.3,-119.975 725.996,-130.67c124.291,-5.171 172.675,-32.092 251.791,-87.53c82.604,-57.225 62.284,-146.537 6.95,-239.595c82.604,85.566 163.592,171.495 294.304,227.295c155.571,64.709 336.267,-33.158 489.159,-48.312c394.541,-38.329 507.883,-130.496 453.079,-296.821c94.629,82.183 171.879,167.75 324.771,205.721c345.091,84.325 758.608,-55.083 1121.07,18.9c74.846,14.975 160.921,-12.658 118.421,-70.238c-324.779,-437.295 -1345.34,-675.466 -2026.15,-777.97c-980.992,-146.717 -2008.51,-149.034 -3003.4,-67.742c-113.867,9.45 -226.938,20.5 -339.738,33.337c-74.845,8.555 -149.158,18.717 -223.466,28.88c-36.888,4.812 -73.775,8.912 -110.134,14.258c-76.979,10.879 -153.162,23.892 -229.604,36.371c-312.479,-756.758 -887.983,-1460.03 -1648.99,-1980.58c-381.709,-611.467 -1072.68,-1216.7 -1990.87,-1291.39c-99.704,-8.379 -103.446,53.3 -44.638,82.538c-45.975,25.496 -82.062,57.404 -113.07,91.987c0.27,-0.712 0.533,-1.425 0.804,-2.141c-1.067,1.071 -1.338,2.321 -2.404,3.387c-11.496,13.196 -19.25,27.988 -29.142,42.075c-14.967,21.925 -29.4,43.675 -40.625,67.384c-8.554,18.362 -16.038,36.37 -22.454,55.266c-0.271,1.067 -0.804,1.959 -1.338,3.029c-531.662,-111.775 -1094.07,-159.908 -1676.52,-124.966c-261.954,16.041 -542.354,44.387 -824.358,85.566c0,-0.533 -0.8,-1.066 -1.071,-1.604c-48.646,7.134 -97.296,15.692 -146.212,23.713c-26.192,4.1 -51.854,7.841 -78.05,12.479c-99.438,17.471 -198.075,36.9 -296.171,58.292c-29.138,6.241 -57.204,13.191 -86.071,19.97c-77.787,18.18 -154.504,37.613 -230.146,58.467c-27,7.313 -53.466,14.442 -80.191,22.108c-97.3,28.88 -192.992,59.363 -284.946,93.413c-13.1,4.812 -25.663,10.342 -38.759,15.333c-46.241,17.467 -92.216,35.117 -136.591,54.192c-2.675,-3.746 -4.009,-7.308 -6.95,-11.054c0.533,0.179 0.804,0.179 1.337,0.358c-2.404,-2.85 -4.008,-5.171 -6.416,-8.2c-30.471,-35.833 -64.417,-68.633 -102.109,-98.225c84.2,-60.792 166.259,-123.008 256.075,-179.7c979.663,-617.704 2284.36,-984.046 3709.35,-898.475c196.463,11.229 861.246,218.379 982.863,-15.512c39.829,-77.546 17.912,-162.584 -35.013,-249.221c98.905,98.05 181.234,205.008 252.067,315.183c38.754,60.075 153.7,123.717 236.025,150.817c244.046,82.358 584.858,40.641 850.554,90.737c195.4,37.971 371.284,90.025 567.484,123.721c666.116,114.979 298.045,-533.562 94.358,-915.775c367.808,253.321 501.996,587.579 606.779,951.071c43.838,151.529 78.85,175.237 268.638,256.171c302.316,129.962 782.125,166.15 1121.33,267.05c186.312,55.621 258.483,74.341 429.291,24.6c38.488,-10.875 52.925,-42.784 56.13,-67.563c25.395,-203.583 10.158,-404.85 -33.413,-603.621c226.942,274.18 305.529,635.888 295.371,887.963c-2.404,75.229 43.571,181.475 153.167,218.733c273.983,91.275 1126.14,328.554 1388.62,155.454c128.579,-84.858 -4.542,-498.262 -32.342,-605.225c-15.771,-60.612 -36.083,-121.225 -58.8,-181.837c-10.696,-28.346 -23.796,-56.154 -35.558,-84.5c-12.563,-28.7 -25.392,-57.4 -39.825,-86.104c-18.713,-37.792 -38.755,-74.875 -60.413,-111.775c-9.617,-16.221 -20.042,-32.088 -30.2,-48.129c-59.875,-95.913 -126.971,-189.859 -209.033,-276.859c-483.017,-516.446 -1149.13,-921.471 -1970.01,-1192.26c-1829.68,-603.267 -4030.65,-708.804 -5930.62,-167.575c-247.254,70.412 -473.658,154.2 -688.033,246.721l0,-0.175c-1.604,0.712 -3.213,1.425 -4.546,2.137c-126.7,54.729 -250.196,111.954 -368.608,172.921c144.875,-154.913 271.846,-321.063 422.333,-463.142c132.583,-125.858 750.05,-377.575 693.117,-547.821c-62.55,-189.683 -277.196,-355.829 -507.875,-472.595c-616.667,-309.121 387.054,21.391 600.896,55.795c366.204,58.296 408.704,-75.05 636.445,-244.941c287.084,-214.634 948.655,-445.671 1033.66,-736.788c22.987,-78.616 -36.888,-155.271 -128.038,-225.866c211.704,64.179 416.725,130.312 624.417,94.658c383.042,-65.6 543.958,-418.217 981.267,-491.129c75.379,-13.017 113.066,-63.646 93.82,-112.667c-100.237,-252.612 -472.32,-341.387 -736.95,-488.462c422.605,26.92 808.05,200.554 1124.28,368.841c72.7,38.863 152.892,40.467 240.3,46.884c141.675,9.27 277.196,-85.925 369.946,-140.655c249.129,-146.891 564.542,-259.737 884.238,-315.537c5.883,-0.713 11.496,-3.029 16.037,-4.1c87.138,-2.85 95.696,-93.771 -1.066,-132.096c-93.288,-36.012 -176.421,-72.737 -256.875,-109.458c-406.567,-185.579 -699.8,-371.692 -1259,-459.4c-513.754,-80.225 -1115.99,-38.329 -1631.61,10.696c-943.575,89.491 -1695.76,403.779 -2371.5,807.383c1.071,-0.892 1.604,-1.783 2.675,-2.675c-5.883,3.746 -11.767,7.667 -17.642,11.233c-80.462,48.134 -158.779,98.759 -237.366,149.388c-37.421,23.887 -75.379,46.883 -112.534,71.487c-112.8,74.871 -224,151.529 -334.129,229.613c-754.862,535.166 -1223.71,1162.5 -1603.55,1831.9c-261.15,329.445 -485.683,665.483 -675.741,1008.83c-3.475,-16.046 -8.017,-32.088 -11.492,-48.134c-6.95,-31.016 -13.896,-61.858 -21.65,-92.7c-4.008,-14.975 -6.95,-29.95 -10.692,-44.925c0,1.788 -0.537,3.746 -0.804,5.888c-408.437,-1527.06 -1998.88,-2971.58 -4275.75,-3347.02c-605.171,-99.296 -1593.65,-180.766 -2401.18,-56.154c0.271,-0.533 0,-1.246 0.271,-1.962c-28.604,4.637 -56.4,10.341 -84.737,15.333c-28.605,4.992 -57.205,9.983 -85.538,15.508c-56.129,11.409 -111.196,24.246 -164.921,37.792c-18.979,4.817 -38.496,8.917 -57.475,13.908c-70.029,19.254 -137.658,41.179 -202.346,65.067c-18.175,6.596 -34.483,14.617 -51.854,21.571c-46.512,18.721 -91.421,38.15 -133.65,59.541c-21.387,10.696 -41.166,22.109 -61.216,33.517c-36.621,20.5 -71.367,42.071 -104.246,64.888c-18.713,13.012 -37.159,26.208 -54.796,39.933c-32.346,25.312 -61.479,52.587 -89.813,80.754c-13.1,13.196 -27.533,25.671 -39.562,39.758c-37.958,43.138 -72.171,88.78 -99.438,138.159c-98.637,178.979 527.388,456.55 698.192,513.591c256.079,85.038 564.813,-16.4 855.367,-74.87c-111.196,69.704 -177.221,151.708 -78.584,279.704c161.984,212.141 670.392,392.729 950.792,526.787c371.817,177.021 940.1,138.696 1302.3,-40.825c-182.567,90.384 -374.225,169.892 -400.688,329.267c-6.679,42.429 41.7,97.333 93.559,120.154c261.154,114.804 548.504,138.333 794.954,274.892c120.287,66.137 307.396,190.033 483.55,163.65c95.962,-4.992 185.775,-19.967 272.646,-45.992c196.737,-96.625 414.854,-135.308 653.021,-116.946c-80.459,57.938 -182.03,113.2 -249.392,177.738c-96.763,91.091 -132.046,149.387 -108.258,259.021c12.295,59.008 103.716,101.791 180.962,118.195c309.804,66.671 452.275,329.796 713.429,450.309c55.334,26.029 120.821,36.191 187.646,41.358c-75.108,33.871 -143.542,76.479 -189.783,155.808c-66.559,114.092 201.812,269.542 313.008,361.888l0,-0.179c19.25,14.975 33.95,29.058 41.433,40.466c261.959,384.53 457.359,797.225 524.446,1215.8c-39.291,-47.062 -81.791,-93.058 -126.7,-138.512c-853.229,-881.013 -2624.9,-1450.23 -4058.98,-1576.08c-871.404,-76.838 -1941.68,-98.584 -2893.55,50.091c0.8,-0.179 1.604,-0.354 2.138,-0.533c-2.671,0.354 -5.079,1.067 -7.754,1.246l-0.021,0Z" style="fill:#e9ba4c;fill-rule:nonzero;stroke:#000;stroke-width:14.42px;"/><g><text x="29780.1px" y="26366.1px" style="font-family:'Ebrima';font-size:6683.5px;fill:#e9ba4c;stroke:#000;stroke-width:11.42px;">D</text><text x="33898.8px" y="26366.1px" style="font-family:'Ebrima';font-size:6683.5px;fill:#e9ba4c;stroke:#000;stroke-width:11.42px;">ream</text></g><g><text x="30075.4px" y="26366.1px" style="font-family:'Ebrima';font-size:6683.5px;fill:#e9ba4c;fill-opacity:0.33;">D</text><text x="34194px" y="26366.1px" style="font-family:'Ebrima';font-size:6683.5px;fill:#e9ba4c;fill-opacity:0.33;">ream</text></g><g><text x="1915.81px" y="26360.2px" style="font-family:'Ebrima';font-size:7190.96px;fill:#e9ba4c;stroke:#000;stroke-width:11.42px;">E</text><text x="5112.79px" y="26360.2px" style="font-family:'Ebrima';font-size:7190.96px;fill:#e9ba4c;stroke:#000;stroke-width:11.42px;">merald</text></g><g><text x="2211.07px" y="26360.2px" style="font-family:'Ebrima';font-size:7190.96px;fill:#e9ba4c;fill-opacity:0.33;">E</text><text x="5408.08px" y="26360.2px" style="font-family:'Ebrima';font-size:7190.96px;fill:#e9ba4c;fill-opacity:0.33;">merald</text></g></g></g><g><text x="13461px" y="32311.6px" style="font-family:'Ebrima';font-size:4093.58px;fill:#e9ba4c;stroke:#000;stroke-width:11.42px;">A</text><text x="16340.3px" y="32311.6px" style="font-family:'Ebrima';font-size:4093.58px;fill:#e9ba4c;stroke:#000;stroke-width:11.42px;">partments</text></g><path d="M9983.84,31086.9l-9833.84,0c-82.837,0 -149.992,67.154 -149.992,149.992l0,374.6l9983.83,0l0,-524.592Z" style="fill:#e9ba4c;"/><path d="M49143.8,30974.6c0,-39.783 -15.804,-77.937 -43.938,-106.066c-28.129,-28.134 -66.283,-43.934 -106.062,-43.934l-9833.83,0l0,524.592l9983.83,0l0,-374.592Z" style="fill:#e9ba4c;"/></g></svg>