<?xml version="1.0" encoding="UTF-8" standalone="no"?><!DOCTYPE svg PUBLIC "-//W3C//DTD SVG 1.1//EN" "http://www.w3.org/Graphics/SVG/1.1/DTD/svg11.dtd"><svg width="100%" height="100%" viewBox="0 0 4859 5334" version="1.1" xmlns="http://www.w3.org/2000/svg" xmlns:xlink="http://www.w3.org/1999/xlink" xml:space="preserve" xmlns:serif="http://www.serif.com/" style="fill-rule:evenodd;clip-rule:evenodd;stroke-linejoin:round;stroke-miterlimit:2;"><g><path d="M2416.25,13.75c-161.25,197.5 -337.917,487.917 -446.667,734.167c-142.083,322.5 -212.5,622.5 -212.916,908.333c-0.417,120.833 3.75,151.25 32.916,238.75c32.084,95 75.834,173.75 203.334,363.75c46.666,69.583 100.833,152.083 120.416,182.917c183.75,291.666 277.084,571.25 307.5,920.833c2.5,28.75 5,64.167 5.417,79.167l0.833,27.083l2.917,-22.917c1.667,-12.5 5,-51.666 7.5,-87.083c18.333,-255.417 83.75,-495.417 195.833,-720.833c52.917,-106.25 90.834,-168.75 218.75,-360.834c123.334,-185.833 136.25,-206.666 172.917,-282.083c75.417,-154.167 90.833,-265.833 68.333,-499.167c-38.333,-401.666 -207.916,-837.5 -490.833,-1260.42c-50.417,-75.417 -135.417,-191.25 -161.25,-219.584l-14.167,-15.416l-10.833,13.333Z" style="fill:none;fill-rule:nonzero;stroke:#ae2029;stroke-width:85.43px;"/><path d="M893.75,2052.5c-6.667,0.833 -30.417,3.75 -52.083,6.25c-188.334,21.25 -378.334,99.583 -525,216.25c-40,32.083 -113.75,106.25 -142.084,143.75c-107.083,140.417 -165,300.417 -172.916,478.75c-5.834,126.667 15.833,261.25 65,405c39.166,114.167 109.166,221.25 220,335.833c144.583,149.167 298.75,248.334 474.166,304.584c95.834,30.833 182.084,42.5 285,39.166c286.667,-10 480.834,-147.916 534.584,-379.583c10.416,-46.667 12.5,-154.583 3.333,-200.417c-43.333,-219.583 -203.75,-361.666 -396.25,-350.833c-56.25,3.333 -100.417,14.583 -150,39.167c-32.917,15.833 -45.417,25.416 -75,55c-29.583,29.583 -39.167,42.5 -55,75.416c-27.5,55.417 -33.75,83.334 -34.167,143.75c0,39.167 2.084,57.084 9.584,83.334c27.5,98.333 95.416,170.833 191.25,204.583l27.083,9.167l-15.833,3.333c-31.667,5.833 -71.25,-0.833 -107.917,-18.75c-114.583,-55.417 -191.667,-218.75 -177.083,-376.25c13.333,-144.167 101.666,-266.25 245.416,-338.75c78.334,-39.583 152.5,-54.167 256.25,-50.833c124.167,4.166 231.667,32.083 350,91.25c243.334,122.083 396.667,324.583 426.667,565c2.083,17.083 5,31.666 5.833,32.916c1.25,0.834 10.417,-2.5 20.417,-7.5c48.75,-25 145,-52.083 213.333,-60.416l24.167,-2.917l-2.917,-21.25c-17.5,-133.333 -67.916,-333.75 -117.5,-467.083c-92.083,-247.084 -215.416,-442.5 -380.833,-604.584c-196.25,-191.666 -415.833,-301.666 -689.167,-345.416c-39.583,-6.667 -227.916,-12.084 -258.333,-7.917Z" style="fill:none;fill-rule:nonzero;stroke:#ae2029;stroke-width:85.43px;"/><path d="M3775,2052.5c-162.5,17.917 -282.083,50.417 -413.333,111.25c-227.084,105.833 -437.084,301.25 -578.75,538.75c-120.417,202.917 -202.084,428.75 -251.25,697.5c-5.834,30.833 -11.667,65.833 -12.917,77.5l-2.917,21.25l24.167,2.917c68.333,8.333 164.583,35.416 213.333,60.416c10,5 19.167,8.334 20.417,7.5c0.833,-1.25 3.75,-15.833 5.833,-32.916c6.667,-53.334 12.5,-79.167 29.167,-130c84.583,-257.5 337.917,-460.834 644.167,-517.084c55.416,-10.416 160.833,-12.5 211.666,-5c155.834,24.167 293.75,120.834 356.25,250c73.334,152.917 40,352.917 -78.75,468.75c-47.916,46.667 -115.833,71.667 -169.166,61.667l-15.834,-3.333l27.084,-9.167c95.833,-33.75 163.75,-106.25 191.25,-204.583c7.5,-26.25 9.583,-44.167 9.583,-83.334c-0.417,-60.416 -6.667,-88.333 -34.167,-143.75c-15.833,-32.916 -25.416,-45.833 -55,-75.416c-29.583,-29.584 -42.083,-39.167 -75,-55c-140,-69.167 -300.416,-47.5 -409.166,54.583c-69.167,65.417 -116.667,154.167 -137.084,257.083c-9.166,45.834 -7.083,153.75 3.334,200.417c46.666,201.25 192.916,327.083 430.416,370.833c48.75,8.75 162.917,12.084 215.834,6.25c232.5,-25.416 455.416,-142.916 647.5,-341.25c110.833,-114.583 180.833,-221.666 220,-335.833c106.25,-310 83.333,-593.75 -65.834,-823.333c-34.583,-53.334 -56.666,-80.834 -105,-130.834c-149.583,-154.166 -350,-252.5 -587.5,-288.333c-41.25,-6.25 -222.916,-11.667 -258.333,-7.5Z" style="fill:none;fill-rule:nonzero;stroke:#ae2029;stroke-width:85.43px;"/><path d="M2292.92,3604.17c-211.25,32.083 -351.25,127.916 -351.25,240.833c0,96.667 112.5,185.417 286.25,225.833c88.333,20.834 224.583,27.084 319.166,14.584c176.667,-23.334 314.167,-94.584 356.667,-185.417c8.75,-18.75 10.833,-29.167 10.833,-56.25c0,-41.25 -11.25,-67.917 -44.166,-103.75c-64.584,-70.833 -171.667,-116.667 -322.5,-137.917c-60.417,-8.75 -190.834,-7.5 -255,2.084Z" style="fill:none;fill-rule:nonzero;stroke:#ae2029;stroke-width:85.43px;"/><path d="M2169.58,4225c-3.75,100.833 -30,251.667 -60,347.917c-38.75,122.916 -115.833,202.083 -224.166,229.583c-33.334,8.333 -117.5,10 -146.667,2.917c-10,-2.5 -17.917,-3.75 -17.917,-2.917c0,4.583 31.25,29.583 67.5,54.167c148.334,100 310.834,90.833 439.584,-25c18.75,-17.084 50.416,-55.417 77.083,-94.167c6.25,-8.75 6.25,-7.5 -0.833,8.333c-31.667,75.417 -41.25,190.834 -22.917,277.084c22.083,104.583 70,209.583 133.333,292.5l13.75,17.916l12.5,-15.416c42.084,-53.75 90,-143.75 112.917,-212.917c22.5,-67.083 30.833,-117.083 30.417,-182.083c0,-73.334 -8.334,-116.25 -36.25,-187.5c-1.667,-4.584 5.416,4.166 16.25,19.583c57.5,83.75 134.583,140 223.333,162.083c29.583,7.5 42.917,8.75 85.417,6.667c56.666,-2.5 95,-11.667 140,-34.167c35.833,-17.5 77.916,-45.833 105.833,-70l20.833,-18.333l-35.416,5.833c-87.084,14.584 -185,-9.583 -246.667,-60.833c-65.417,-53.75 -102.917,-127.5 -132.083,-258.75c-26.25,-118.75 -37.917,-204.167 -37.917,-283.75l0,-48.333l-41.667,9.583c-66.666,15 -111.666,18.75 -220.833,18.75c-105.417,0 -162.917,-5.417 -223.333,-20.417l-29.584,-7.5l-2.5,69.167Z" style="fill:none;fill-rule:nonzero;stroke:#ae2029;stroke-width:85.43px;"/></g></svg>